<?xml version="1.0" encoding="UTF-8" standalone="no"?>
<!-- Created with Inkscape (http://www.inkscape.org/) -->

<svg
   width="10cm"
   height="2cm"
   viewBox="0 0 100 20"
   version="1.1"
   id="svg1"
   inkscape:version="1.3 (0e150ed6c4, 2023-07-21)"
   sodipodi:docname="2.svg"
   inkscape:export-filename="1b.png"
   inkscape:export-xdpi="300.60001"
   inkscape:export-ydpi="300.60001"
   xmlns:inkscape="http://www.inkscape.org/namespaces/inkscape"
   xmlns:sodipodi="http://sodipodi.sourceforge.net/DTD/sodipodi-0.dtd"
   xmlns="http://www.w3.org/2000/svg"
   xmlns:svg="http://www.w3.org/2000/svg">
  <sodipodi:namedview
     id="namedview1"
     pagecolor="#ffffff"
     bordercolor="#000000"
     borderopacity="0.25"
     inkscape:showpageshadow="2"
     inkscape:pageopacity="0.0"
     inkscape:pagecheckerboard="0"
     inkscape:deskcolor="#d1d1d1"
     inkscape:document-units="mm"
     inkscape:zoom="1.3843855"
     inkscape:cx="267.26659"
     inkscape:cy="81.985832"
     inkscape:window-width="1680"
     inkscape:window-height="997"
     inkscape:window-x="-8"
     inkscape:window-y="-8"
     inkscape:window-maximized="1"
     inkscape:current-layer="layer1"
     showgrid="false" />
  <defs
     id="defs1" />
  <g
     inkscape:label="Layer 1"
     inkscape:groupmode="layer"
     id="layer1">
    <path
       style="fill:none;stroke:#000000;stroke-width:0.265;stroke-dasharray:none;stroke-opacity:1"
       d="M 4.810992,10.220711 C 15.172696,10.089021 25.521302,9.7790613 35.876491,9.7790613"
       id="path5" />
    <path
       style="fill:none;stroke:#000000;stroke-width:0.264583;stroke-opacity:1"
       d="M 6.625523,7.6081908 C -4.0006179,10.740143 4.171698,12.386183 9.014519,12.386183"
       id="path6" />
    <g
       id="g24"
       transform="translate(-15.679245,-5.7888614)">
      <path
         style="fill:none;stroke:#000000;stroke-width:0.264583;stroke-opacity:1"
         d="m 27.839257,13.442603 c 0.249269,1.874825 0.202713,3.665886 0.202713,5.544852"
         id="path8" />
      <path
         style="fill:none;stroke:#000000;stroke-width:0.264583;stroke-opacity:1"
         d="m 28.476834,20.521477 c -0.142322,-0.573572 -0.777565,-0.558098 -1.146717,-0.16723 -0.799801,0.846847 -0.888379,3.070972 0.788368,2.651786 0.583578,-0.145895 0.914188,-1.636938 0.812258,-2.126207 -0.03732,-0.17914 -0.236546,-0.332107 -0.35835,-0.453909"
         id="path9" />
    </g>
    <g
       id="g23"
       transform="translate(-36.100328,-6.0388915)">
      <path
         style="fill:none;stroke:#000000;stroke-width:0.264583;stroke-opacity:1"
         d="m 67.943049,13.808398 c -0.157342,1.729205 -0.2389,3.447689 -0.2389,5.179057"
         id="path10" />
      <path
         style="fill:none;stroke:#000000;stroke-width:0.264583;stroke-opacity:1"
         d="m 65.888512,20.593147 c 0.01593,0.302606 0.02907,0.605371 0.04778,0.907818 0.02907,0.470016 0.04426,0.941396 0.09556,1.409508 0.136355,1.244256 0.481719,-2.131689 0.907817,-2.078427 0.420989,0.05262 0.294185,1.256045 0.286681,1.481178 -0.0048,0.145236 -0.106915,0.570997 -0.07167,0.430019 0.112538,-0.450152 0.253397,-0.851774 0.453908,-1.266168 1.289611,-2.665196 1.00788,0.934248 1.24228,1.481178"
         id="path11" />
    </g>
    <path
       style="fill:none;stroke:#000000;stroke-width:0.265;stroke-dasharray:none;stroke-opacity:1"
       d="M 43.647626,9.8636945 C 60.105514,9.7796314 76.542597,9.5817698 92.990132,9.5817698"
       id="path12" />
    <path
       style="fill:none;stroke:#000000;stroke-width:0.264583;stroke-opacity:1"
       d="m 90.016676,7.3501808 c 8.050929,3.2432152 10.966264,2.198227 3.822395,5.0371782"
       id="path23" />
    <path
       style="fill:none;stroke:#000000;stroke-width:0.264583;stroke-opacity:1"
       d="m 52.141624,7.2362918 c 0.249269,1.874825 0.202713,3.6658862 0.202713,5.5448522"
       id="path32" />
    <g
       id="g49"
       transform="translate(0.33187778,-0.57909625)">
      <path
         style="fill:none;stroke:#000000;stroke-width:0.264583;stroke-opacity:1"
         d="m 51.969141,15.345169 c 0.01593,0.302606 0.02907,0.605372 0.04778,0.907818 0.02907,0.470016 0.04426,0.941396 0.09556,1.409508 0.136355,1.244256 0.481719,-2.131689 0.907817,-2.078427 0.420989,0.05262 0.294185,1.256045 0.286681,1.481178 -0.0048,0.145236 -0.106915,0.570997 -0.07167,0.430019 0.112538,-0.450152 0.253397,-0.851774 0.453908,-1.266168 1.289611,-2.665196 1.00788,0.934248 1.24228,1.481178"
         id="path35" />
      <path
         style="fill:none;stroke:#000000;stroke-width:0.264999;stroke-dasharray:none"
         d="m 49.841856,14.389409 c 0.07995,0.951235 7.94e-4,2.754523 0.289727,3.621662"
         id="path37" />
      <path
         style="fill:none;stroke:#000000;stroke-width:0.264999;stroke-dasharray:none"
         d="m 51.240846,15.537029 c -0.288404,0.315331 -0.549767,0.657712 -0.865206,0.945994 -0.386085,0.352844 -0.676328,-0.265435 0.152035,0.388533 0.262988,0.207625 0.680908,0.65544 0.947997,0.751381"
         id="path38" />
    </g>
    <path
       style="fill:none;stroke:#000000;stroke-width:0.264583;stroke-opacity:1"
       d="m 81.742541,7.2394595 c -0.157342,1.729205 -0.2389,3.4476895 -0.2389,5.1790575"
       id="path30" />
    <path
       style="fill:none;stroke:#000000;stroke-width:0.264583;stroke-opacity:1"
       d="m 84.791909,14.928235 c 5.45e-4,0.303024 -0.0017,0.606067 0.0016,0.909073 0.0052,0.470886 -0.0036,0.942429 0.02387,1.412542 0.073,1.249574 0.589332,-2.104481 1.012176,-2.029653 0.417774,0.07393 0.230031,1.269362 0.211106,1.493824 -0.01217,0.144805 -0.135769,0.564832 -0.09341,0.425825 0.135249,-0.443857 0.296319,-0.837809 0.517612,-1.241488 1.42327,-2.596279 0.959144,0.984218 1.165472,1.542344"
       id="path31" />
    <path
       style="fill:none;stroke:#000000;stroke-width:0.252141;stroke-dasharray:none"
       d="m 77.261402,14.3354 c 0.03002,0.907774 -0.132318,2.617525 0.100348,3.455483"
       id="path39" />
    <path
       style="fill:none;stroke:#000000;stroke-width:0.252141;stroke-dasharray:none"
       d="m 78.53535,15.493512 c -0.289289,0.285711 -0.55419,0.598432 -0.867863,0.857133 -0.383924,0.316638 -0.629859,-0.284903 0.125701,0.376548 0.239874,0.210002 0.615369,0.655728 0.864535,0.759799"
       id="path40" />
    <path
       style="fill:none;stroke:#000000;stroke-width:0.252141;stroke-dasharray:none"
       d="m 79.783154,15.471755 c -0.01691,0.446746 -0.165083,0.868003 -0.11472,1.306596"
       id="path42" />
    <path
       style="fill:none;stroke:#000000;stroke-width:0.252141;stroke-dasharray:none"
       d="m 79.059141,16.100716 c 0.53191,-0.104757 1.166706,0.146277 1.685497,0.08569"
       id="path43" />
    <path
       style="fill:none;stroke:#000000;stroke-width:0.252141;stroke-dasharray:none"
       d="m 81.395359,16.049356 c 0.103248,-0.324666 0.356614,-0.549883 0.556315,-0.812591 0.189995,-0.24994 0.28104,-0.446487 0.438849,-0.718006 0.03613,-0.06216 0.177895,-0.184082 0.106109,-0.187731 -0.03534,-0.0018 -0.204865,2.763434 -0.221714,3.094838"
       id="path44" />
    <path
       style="fill:none;stroke:#000000;stroke-width:0.252141;stroke-dasharray:none"
       d="m 76.921837,13.822291 c -1.831643,0.484358 -1.911738,3.642366 -0.515002,4.431812"
       id="path47" />
    <path
       style="fill:none;stroke:#000000;stroke-width:0.252141;stroke-dasharray:none"
       d="m 83.13355,13.832311 c 0.433436,0.727681 0.545625,0.742117 0.642379,1.609855 0.06976,0.625675 -0.300599,2.760732 -1.24417,2.946296"
       id="path48" />
    <g
       id="g77"
       transform="translate(-0.6334498,0.47873903)"
       style="fill:none;fill-opacity:1;stroke:#ff870d;stroke-opacity:1">
      <g
         id="g64"
         style="fill:none;fill-opacity:1;stroke:#ff870d;stroke-opacity:1" />
    </g>
    <g
       id="g69"
       transform="translate(-12.768609,6.6778913)"
       style="fill:none;fill-opacity:1;stroke:#ff870d;stroke-opacity:1" />
    <circle
       style="fill:#b20097;fill-opacity:1;stroke:#b20097;stroke-width:0.264999;stroke-dasharray:none;stroke-opacity:1"
       id="path50"
       cx="61.246571"
       cy="9.7227316"
       r="0.7298196" />
    <circle
       style="fill:#000000;fill-opacity:1;stroke:#000000;stroke-width:0.404534;stroke-dasharray:none"
       id="circle73"
       cx="37.793919"
       cy="9.8507309"
       r="0.10940745" />
    <circle
       style="fill:#000000;fill-opacity:1;stroke:#000000;stroke-width:0.404534;stroke-dasharray:none"
       id="circle74"
       cx="39.800674"
       cy="9.8507309"
       r="0.10940745" />
    <circle
       style="fill:#000000;fill-opacity:1;stroke:#000000;stroke-width:0.404534;stroke-dasharray:none"
       id="circle75"
       cx="41.80743"
       cy="9.8507309"
       r="0.10940745" />
    <g
       id="g3"
       transform="translate(-36.100328,-6.0388915)">
      <path
         style="fill:none;stroke:#000000;stroke-width:0.264583;stroke-opacity:1"
         d="m 67.943049,13.808398 c -0.157342,1.729205 -0.2389,3.447689 -0.2389,5.179057"
         id="path2" />
      <path
         style="fill:none;stroke:#000000;stroke-width:0.264583;stroke-opacity:1"
         d="m 65.888512,20.593147 c 0.01593,0.302606 0.02907,0.605371 0.04778,0.907818 0.02907,0.470016 0.04426,0.941396 0.09556,1.409508 0.136355,1.244256 0.481719,-2.131689 0.907817,-2.078427 0.420989,0.05262 0.294185,1.256045 0.286681,1.481178 -0.0048,0.145236 -0.106915,0.570997 -0.07167,0.430019 0.112538,-0.450152 0.253397,-0.851774 0.453908,-1.266168 1.289611,-2.665196 1.00788,0.934248 1.24228,1.481178"
         id="path3" />
    </g>
    <g
       id="g17"
       transform="translate(0.4197052,7.1555521)">
      <path
         style="fill:none;stroke:#b20097;stroke-width:0.264999"
         d="m 60.510691,4.7130783 c 0.252114,0.8047164 0.176215,1.8969558 0.42232,2.6352695"
         id="path15" />
      <path
         style="fill:none;stroke:#b20097;stroke-width:0.312695"
         d="m 60.682434,5.6334601 c 0.35047,-1.6163915 1.363581,-0.4746456 1.799865,0.1520348"
         id="path16" />
    </g>
  </g>
</svg>
