<?xml version="1.0" encoding="UTF-8" standalone="no"?>
<!-- Created with Inkscape (http://www.inkscape.org/) -->

<svg
   width="19cm"
   height="3cm"
   viewBox="0 0 189.99999 30"
   version="1.1"
   id="svg1"
   sodipodi:docname="4.svg"
   inkscape:version="1.1.2 (0a00cf5339, 2022-02-04)"
   inkscape:export-filename="4.png"
   inkscape:export-xdpi="500"
   inkscape:export-ydpi="500"
   xmlns:inkscape="http://www.inkscape.org/namespaces/inkscape"
   xmlns:sodipodi="http://sodipodi.sourceforge.net/DTD/sodipodi-0.dtd"
   xmlns="http://www.w3.org/2000/svg"
   xmlns:svg="http://www.w3.org/2000/svg">
  <sodipodi:namedview
     id="namedview1"
     pagecolor="#ffffff"
     bordercolor="#000000"
     borderopacity="0.25"
     inkscape:showpageshadow="2"
     inkscape:pageopacity="0.0"
     inkscape:pagecheckerboard="0"
     inkscape:deskcolor="#d1d1d1"
     inkscape:document-units="mm"
     inkscape:zoom="1.7046726"
     inkscape:cx="248.72811"
     inkscape:cy="181.55979"
     inkscape:window-width="1642"
     inkscape:window-height="986"
     inkscape:window-x="0"
     inkscape:window-y="0"
     inkscape:window-maximized="1"
     inkscape:current-layer="layer1"
     inkscape:pageshadow="2"
     showgrid="false"
     inkscape:snap-global="false" />
  <defs
     id="defs1">
    <inkscape:path-effect
       effect="simplify"
       id="path-effect3793"
       is_visible="true"
       lpeversion="1"
       steps="1"
       threshold="0.00569231"
       smooth_angles="360"
       helper_size="0"
       simplify_individual_paths="false"
       simplify_just_coalesce="false" />
    <inkscape:path-effect
       effect="simplify"
       id="path-effect3787"
       is_visible="true"
       lpeversion="1"
       steps="1"
       threshold="0.00569231"
       smooth_angles="360"
       helper_size="0"
       simplify_individual_paths="false"
       simplify_just_coalesce="false" />
    <inkscape:path-effect
       effect="simplify"
       id="path-effect3262"
       is_visible="true"
       lpeversion="1"
       steps="1"
       threshold="0.00569231"
       smooth_angles="360"
       helper_size="0"
       simplify_individual_paths="false"
       simplify_just_coalesce="false" />
    <inkscape:path-effect
       effect="simplify"
       id="path-effect3004"
       is_visible="true"
       lpeversion="1"
       steps="1"
       threshold="0.00569231"
       smooth_angles="360"
       helper_size="0"
       simplify_individual_paths="false"
       simplify_just_coalesce="false" />
    <inkscape:path-effect
       effect="simplify"
       id="path-effect2982"
       is_visible="true"
       lpeversion="1"
       steps="1"
       threshold="0.00569231"
       smooth_angles="360"
       helper_size="0"
       simplify_individual_paths="false"
       simplify_just_coalesce="false" />
    <inkscape:path-effect
       effect="simplify"
       id="path-effect2816"
       is_visible="true"
       lpeversion="1"
       steps="1"
       threshold="0.00569231"
       smooth_angles="360"
       helper_size="0"
       simplify_individual_paths="false"
       simplify_just_coalesce="false" />
    <inkscape:path-effect
       effect="simplify"
       id="path-effect2812"
       is_visible="true"
       lpeversion="1"
       steps="1"
       threshold="0.00569231"
       smooth_angles="360"
       helper_size="0"
       simplify_individual_paths="false"
       simplify_just_coalesce="false" />
    <inkscape:path-effect
       effect="simplify"
       id="path-effect2170"
       is_visible="true"
       lpeversion="1"
       steps="1"
       threshold="0.00569231"
       smooth_angles="360"
       helper_size="0"
       simplify_individual_paths="false"
       simplify_just_coalesce="false" />
    <inkscape:path-effect
       effect="simplify"
       id="path-effect2166"
       is_visible="true"
       lpeversion="1"
       steps="1"
       threshold="0.00569231"
       smooth_angles="360"
       helper_size="0"
       simplify_individual_paths="false"
       simplify_just_coalesce="false" />
    <inkscape:path-effect
       effect="simplify"
       id="path-effect2162"
       is_visible="true"
       lpeversion="1"
       steps="1"
       threshold="0.00569231"
       smooth_angles="360"
       helper_size="0"
       simplify_individual_paths="false"
       simplify_just_coalesce="false" />
    <inkscape:path-effect
       effect="simplify"
       id="path-effect2158"
       is_visible="true"
       lpeversion="1"
       steps="1"
       threshold="0.00569231"
       smooth_angles="360"
       helper_size="0"
       simplify_individual_paths="false"
       simplify_just_coalesce="false" />
    <inkscape:path-effect
       effect="simplify"
       id="path-effect2154"
       is_visible="true"
       lpeversion="1"
       steps="1"
       threshold="0.00569231"
       smooth_angles="360"
       helper_size="0"
       simplify_individual_paths="false"
       simplify_just_coalesce="false" />
    <inkscape:path-effect
       effect="simplify"
       id="path-effect2150"
       is_visible="true"
       lpeversion="1"
       steps="1"
       threshold="0.00569231"
       smooth_angles="360"
       helper_size="0"
       simplify_individual_paths="false"
       simplify_just_coalesce="false" />
    <inkscape:path-effect
       effect="simplify"
       id="path-effect2146"
       is_visible="true"
       lpeversion="1"
       steps="1"
       threshold="0.00569231"
       smooth_angles="360"
       helper_size="0"
       simplify_individual_paths="false"
       simplify_just_coalesce="false" />
    <inkscape:path-effect
       effect="simplify"
       id="path-effect2142"
       is_visible="true"
       lpeversion="1"
       steps="1"
       threshold="0.00569231"
       smooth_angles="360"
       helper_size="0"
       simplify_individual_paths="false"
       simplify_just_coalesce="false" />
    <inkscape:path-effect
       effect="simplify"
       id="path-effect2025"
       is_visible="true"
       lpeversion="1"
       steps="1"
       threshold="0.00569231"
       smooth_angles="360"
       helper_size="0"
       simplify_individual_paths="false"
       simplify_just_coalesce="false" />
    <inkscape:path-effect
       effect="simplify"
       id="path-effect2021"
       is_visible="true"
       lpeversion="1"
       steps="1"
       threshold="0.00569231"
       smooth_angles="360"
       helper_size="0"
       simplify_individual_paths="false"
       simplify_just_coalesce="false" />
    <inkscape:path-effect
       effect="simplify"
       id="path-effect2017"
       is_visible="true"
       lpeversion="1"
       steps="1"
       threshold="0.00569231"
       smooth_angles="360"
       helper_size="0"
       simplify_individual_paths="false"
       simplify_just_coalesce="false" />
    <inkscape:path-effect
       effect="simplify"
       id="path-effect2013"
       is_visible="true"
       lpeversion="1"
       steps="1"
       threshold="0.00569231"
       smooth_angles="360"
       helper_size="0"
       simplify_individual_paths="false"
       simplify_just_coalesce="false" />
  </defs>
  <g
     inkscape:label="Layer 1"
     inkscape:groupmode="layer"
     id="layer1">
    <path
       style="fill:none;stroke:#000000;stroke-width:0.2;stroke-dasharray:none;stroke-dashoffset:0;stroke-opacity:1;stroke-miterlimit:4"
       d="m 11.33151,22.456851 c 0,0 9.408406,-18.7572654 18.963314,-18.8290731 9.011081,-0.067721 15.877564,13.9947811 23.387757,21.4042571"
       id="path55"
       sodipodi:nodetypes="csc" />
    <path
       style="fill:none;stroke:#000000;stroke-width:0.2;stroke-dasharray:none;stroke-opacity:1;stroke-miterlimit:4"
       d="M 2.3325283,17.199347 H 55.345988"
       id="path1"
       sodipodi:nodetypes="cc" />
    <path
       style="fill:none;stroke:#000000;stroke-width:0.2;stroke-dasharray:none;stroke-opacity:1;stroke-miterlimit:4"
       d="m 6.4891754,14.679351 c -4.672083,1.478164 -9.2857965,4.545054 -0.7904459,4.545054"
       id="path2" />
    <path
       style="fill:none;stroke:#000000;stroke-width:0.2;stroke-dasharray:none;stroke-opacity:1;stroke-miterlimit:4"
       d="m 14.415962,16.059611 c 0.02417,0.787762 -0.03494,1.558623 -0.03494,2.340514"
       id="path34-8" />
    <path
       style="fill:none;stroke:#000000;stroke-width:0.2;stroke-dasharray:none;stroke-opacity:1;stroke-miterlimit:4"
       d="m 47.2297,16.055373 c 0.01158,0.835983 -0.134346,1.65257 -0.2096,2.480245"
       id="path35-7" />
    <path
       style="fill:none;stroke:#000000;stroke-width:0.2;stroke-dasharray:none;stroke-opacity:1;stroke-miterlimit:4"
       d="m 26.914197,16.030517 c 0.242322,0.72174 0.148209,1.518268 0.148209,2.272526"
       id="path33-1" />
    <path
       style="fill:none;stroke:#000000;stroke-width:0.2;stroke-dasharray:none;stroke-dashoffset:0;stroke-opacity:1;stroke-miterlimit:4"
       d="m 14.423732,10.900058 c -0.635077,-2.3302511 2.242689,-0.331726 2.967142,-0.512839 0.521071,-0.130272 1.0682,-1.3919939 0.842521,-1.3919939 -0.03923,0 0.495203,0.8622393 1.245467,1.0623119 1.454509,0.387868 3.166282,0.09586 4.652187,0 0.705938,-0.04556 2.857248,-0.4835135 2.857248,0.659365"
       id="path51" />
    <path
       style="fill:none;stroke:#000000;stroke-width:0.2;stroke-dasharray:none;stroke-opacity:1;stroke-miterlimit:4"
       d="M 68.379514,17.199347 H 116.52659"
       id="path98"
       sodipodi:nodetypes="cc" />
    <path
       style="fill:none;stroke:#000000;stroke-width:0.2;stroke-dasharray:none;stroke-dashoffset:0;stroke-opacity:1;stroke-miterlimit:4"
       d="m 72.280374,22.456851 c 0,0 9.408408,-18.7572654 18.963315,-18.8290731 9.608581,-0.072211 16.778731,15.9218001 24.891001,22.7843521"
       id="path97"
       sodipodi:nodetypes="csc" />
    <path
       style="fill:none;stroke:#000000;stroke-width:0.2;stroke-dasharray:none;stroke-opacity:1;stroke-miterlimit:4"
       d="m 75.364825,16.059611 c 0.02419,0.787762 -0.03494,1.558623 -0.03494,2.340514"
       id="path114" />
    <path
       style="fill:none;stroke:#000000;stroke-width:0.2;stroke-dasharray:none;stroke-opacity:1;stroke-miterlimit:4"
       d="m 100.87282,19.955031 c -0.2066,-0.606375 0.86182,-0.895842 1.02719,-0.352466 0.13343,0.438406 0.0415,0.800871 -0.26018,1.061364 -0.3129,0.305261 -1.09611,0.828427 -1.07217,1.231823 0.77952,0.05196 0.7647,0.02857 1.54329,0.02857"
       id="path115"
       sodipodi:nodetypes="csssc" />
    <path
       style="fill:none;stroke:#000000;stroke-width:0.2;stroke-dasharray:none;stroke-opacity:1;stroke-miterlimit:4"
       d="m 104.59158,20.280262 c 0.79792,0.146331 0.97858,0.02868 1.30916,0.05035 0.1161,0.0077 0.0395,0.222417 0,0.261833 -0.10126,0.10125 -1.5931,1.441207 -1.41636,1.437164 0.56952,-0.01303 0.72649,-0.0492 1.0941,-0.04744 h 0.71501"
       id="path116"
       sodipodi:nodetypes="cssssc" />
    <path
       style="fill:none;stroke:#000000;stroke-width:0.2;stroke-dasharray:none;stroke-opacity:1;stroke-miterlimit:4"
       d="m 104.62831,21.164972 c 0.45808,-0.0334 0.73677,0.113009 1.18001,0.14403"
       id="path117"
       sodipodi:nodetypes="cc" />
    <path
       style="fill:none;stroke:#000000;stroke-width:0.2;stroke-dasharray:none;stroke-opacity:1;stroke-miterlimit:4"
       d="m 102.80055,20.472771 c 0.0216,0.595092 0.0201,1.048333 0.0201,1.62135"
       id="path118" />
    <path
       style="fill:none;stroke:#000000;stroke-width:0.2;stroke-dasharray:none;stroke-opacity:1;stroke-miterlimit:4"
       d="m 103.65091,20.429476 c 0.0751,0.561996 -0.018,1.127008 0.0111,1.687642"
       id="path119" />
    <path
       style="fill:none;stroke:#000000;stroke-width:0.2;stroke-dasharray:none;stroke-opacity:1;stroke-miterlimit:4"
       d="m 102.26681,20.543261 c 0.64101,-0.217963 1.38631,-0.0018 2.04431,-0.181267"
       id="path120" />
    <path
       style="fill:none;stroke:#000000;stroke-width:0.2;stroke-dasharray:none;stroke-opacity:1;stroke-miterlimit:4"
       d="m 107.02438,20.644985 c -0.009,0.349374 -0.0849,0.695345 -0.12355,1.043342"
       id="path121" />
    <path
       style="fill:none;stroke:#000000;stroke-width:0.2;stroke-dasharray:none;stroke-opacity:1;stroke-miterlimit:4"
       d="m 106.48898,21.111742 c 0.40728,0.02289 0.81454,0.04576 1.22181,0.06863 0.009,0 0.0183,0 0.0275,0"
       id="path122" />
    <path
       style="fill:none;stroke:#000000;stroke-width:0.2;stroke-dasharray:none;stroke-opacity:1;stroke-miterlimit:4"
       d="m 108.47446,20.501718 c 0.0216,0.595091 0.0201,1.048332 0.0201,1.62135"
       id="path123" />
    <path
       style="fill:none;stroke:#000000;stroke-width:0.2;stroke-dasharray:none;stroke-opacity:1;stroke-miterlimit:4"
       d="m 109.3248,20.458425 c 0.0751,0.561994 -0.018,1.127007 0.0111,1.687639"
       id="path124" />
    <path
       style="fill:none;stroke:#000000;stroke-width:0.2;stroke-dasharray:none;stroke-opacity:1;stroke-miterlimit:4"
       d="m 107.94072,20.57221 c 0.64101,-0.217966 1.3863,-0.0017 2.04431,-0.181269"
       id="path125" />
    <path
       style="fill:none;stroke:#000000;stroke-width:0.2;stroke-dasharray:none;stroke-opacity:1;stroke-miterlimit:4"
       d="m 108.17856,16.055373 c 0.0116,0.835983 -0.13436,1.65257 -0.2096,2.480245"
       id="path126" />
    <path
       style="fill:none;stroke:#000000;stroke-width:0.2;stroke-dasharray:none;stroke-opacity:1;stroke-miterlimit:4"
       d="m 91.038059,16.030517 c 0.242324,0.72174 0.14821,1.518268 0.14821,2.272526"
       id="path127" />
    <path
       style="fill:none;stroke:#000000;stroke-width:0.2;stroke-dasharray:none;stroke-dashoffset:0;stroke-opacity:1;stroke-miterlimit:4"
       d="m 75.372595,10.900058 c -0.635077,-2.3302511 2.242688,-0.331726 2.967142,-0.512839 0.521071,-0.130272 1.0682,-1.3919939 0.842521,-1.3919939 -0.03923,0 0.495201,0.8622393 1.245467,1.0623119 1.454509,0.387868 3.166282,0.09586 4.652187,0 0.705938,-0.04556 6.204638,-0.4835135 6.204638,0.659365"
       id="path132"
       sodipodi:nodetypes="cssscc" />
    <path
       style="fill:none;fill-opacity:1;stroke:#000000;stroke-width:0.2;stroke-dasharray:none;stroke-dashoffset:0;stroke-opacity:1;stroke-miterlimit:4"
       d="m 91.23744,19.879904 v 0.944092"
       id="path135" />
    <path
       style="fill:none;fill-opacity:1;stroke:#000000;stroke-width:0.2;stroke-dasharray:none;stroke-dashoffset:0;stroke-opacity:1;stroke-miterlimit:4"
       d="M 91.7095,20.35195 H 90.765396"
       id="path136" />
    <path
       style="fill:none;fill-opacity:1;stroke:#000000;stroke-width:0.2;stroke-dasharray:none;stroke-dashoffset:0;stroke-opacity:1;stroke-miterlimit:4"
       d="m 92.852321,19.273959 v 2.290815"
       id="path137" />
    <path
       style="fill:none;fill-opacity:1;stroke:#000000;stroke-width:0.2;stroke-dasharray:none;stroke-dashoffset:0;stroke-opacity:1;stroke-miterlimit:4"
       d="m 91.935991,19.287845 c 0.692507,0.07852 1.382385,0.111074 2.082557,0.111074"
       id="path138" />
    <path
       style="fill:none;stroke:#000000;stroke-width:0.2;stroke-dasharray:none;stroke-dashoffset:0;stroke-opacity:1;stroke-miterlimit:4"
       d="m 81.551104,5.3324442 c -0.301473,0.075233 -0.469106,0.3804759 -0.574121,0.6561369 -0.371738,0.9758108 1.552499,1.0057328 1.906903,0.6766428 0.130566,-0.1212379 0.02964,-0.9375077 -0.164036,-0.8406768 -0.304562,0.1522811 -0.548396,0.4836259 -0.758658,0.7381548 -0.253839,0.3072788 -0.341814,0.7901602 -0.635633,1.025215"
       id="path146" />
    <path
       style="fill:none;fill-opacity:1;stroke:#000000;stroke-width:0.2;stroke-dasharray:none;stroke-dashoffset:0;stroke-opacity:1;stroke-miterlimit:4"
       d="M 77.521311,5.8640261 V 7.1108582"
       id="path149" />
    <path
       style="fill:none;fill-opacity:1;stroke:#000000;stroke-width:0.2;stroke-dasharray:none;stroke-dashoffset:0;stroke-opacity:1;stroke-miterlimit:4"
       d="m 78.144725,6.4874421 h -1.24683"
       id="path150" />
    <path
       style="fill:none;fill-opacity:1;stroke:#000000;stroke-width:0.2;stroke-dasharray:none;stroke-dashoffset:0;stroke-opacity:1;stroke-miterlimit:4"
       d="m 79.754275,5.3879628 c -0.0924,0.2923426 -0.251434,0.549747 -0.396723,0.8161085 -0.03423,0.062771 -0.678546,1.1747279 -0.600744,1.1788231 0.401899,0.021148 0.810235,0 1.212828,0 0.03827,0 0.419387,0.065315 0.419387,0.056677 0,-0.1044109 -0.110877,-0.2579734 -0.13602,-0.3627137 -0.07738,-0.3224419 -0.09928,-0.687912 -0.215362,-0.9974664 -0.0755,-0.2013575 -0.283366,-0.4715155 -0.283366,-0.6914253 z"
       id="path151" />
    <path
       style="fill:none;stroke:#000000;stroke-width:0.2;stroke-dasharray:none;stroke-opacity:1;stroke-miterlimit:4"
       d="m 129.56011,17.199347 h 57.92791"
       id="path37"
       sodipodi:nodetypes="cc" />
    <path
       style="fill:none;stroke:#000000;stroke-width:0.2;stroke-dasharray:none;stroke-opacity:1;stroke-miterlimit:4"
       d="m 186.47684,15.173379 c 5.50079,1.372516 0.64,2.474638 -0.69162,5.137887"
       id="path40" />
    <path
       style="fill:none;stroke:#000000;stroke-width:0.2;stroke-dasharray:none;stroke-dashoffset:0;stroke-opacity:1;stroke-miterlimit:4"
       d="m 132.94693,22.456851 c 0,0 9.4084,-18.7572652 18.96332,-18.8290731 9.53895,-0.071688 16.67467,15.6907901 24.71478,22.6337001"
       id="path52"
       sodipodi:nodetypes="csc" />
    <g
       id="g4152"
       style="stroke:#000000;stroke-opacity:1">
      <path
         style="fill:none;stroke:#000000;stroke-width:0.2;stroke-miterlimit:4;stroke-dasharray:0.2, 0.6;stroke-dashoffset:0;stroke-opacity:1"
         d="M 27.11181,16.944469 V 10.700576"
         id="path41"
         sodipodi:nodetypes="cc" />
      <path
         style="fill:none;stroke:#000000;stroke-width:0.2;stroke-miterlimit:4;stroke-dasharray:0.2, 0.6;stroke-dashoffset:0;stroke-opacity:1"
         d="M 14.4153,17.092678 V 11.114943"
         id="path50" />
      <path
         style="fill:none;stroke:#000000;stroke-width:0.2;stroke-miterlimit:4;stroke-dasharray:0.2, 0.6;stroke-dashoffset:0;stroke-opacity:1"
         d="M 91.235675,16.944469 V 10.623331"
         id="path99"
         sodipodi:nodetypes="cc" />
      <path
         style="fill:none;stroke:#000000;stroke-width:0.2;stroke-miterlimit:4;stroke-dasharray:0.2, 0.6;stroke-dashoffset:0;stroke-opacity:1"
         d="M 75.364164,17.092678 V 11.114943"
         id="path100" />
      <path
         style="fill:none;stroke:#000000;stroke-width:0.2;stroke-miterlimit:4;stroke-dasharray:0.2, 0.6;stroke-dashoffset:0;stroke-opacity:1"
         d="M 175.26415,16.944469 V 10.623331"
         id="path152"
         sodipodi:nodetypes="cc" />
      <path
         style="fill:none;stroke:#000000;stroke-width:0.2;stroke-miterlimit:4;stroke-dasharray:0.2, 0.6;stroke-dashoffset:0;stroke-opacity:1"
         d="M 135.88755,17.092678 V 11.114943"
         id="path153" />
    </g>
    <path
       style="fill:none;stroke:#000000;stroke-width:0.2;stroke-dasharray:none;stroke-opacity:1;stroke-miterlimit:4"
       d="m 135.8882,16.059611 c 0.0243,0.787762 -0.0349,1.558623 -0.0349,2.340514"
       id="path160" />
    <path
       style="fill:none;stroke:#000000;stroke-width:0.2;stroke-dasharray:none;stroke-opacity:1;stroke-miterlimit:4"
       d="m 168.70196,16.055373 c 0.0109,0.835983 -0.13436,1.65257 -0.2096,2.480245"
       id="path172" />
    <path
       style="fill:none;stroke:#000000;stroke-width:0.2;stroke-dasharray:none;stroke-opacity:1;stroke-miterlimit:4"
       d="m 175.06654,16.030517 c 0.24232,0.72174 0.1482,1.518268 0.1482,2.272526"
       id="path173" />
    <path
       style="fill:none;stroke:#000000;stroke-width:0.2;stroke-dasharray:none;stroke-dashoffset:0;stroke-opacity:1;stroke-miterlimit:4"
       d="m 135.89597,10.900058 c -0.63508,-2.3302511 2.2427,-0.331726 2.96715,-0.512839 0.52108,-0.130272 1.06821,-1.3919939 0.84253,-1.3919939 -0.0392,0 0.4952,0.8622393 1.24546,1.0623119 1.45451,0.387868 3.16629,0.09586 4.6522,0 0.70593,-0.04556 29.66101,-0.4835135 29.66101,0.659365"
       id="path174"
       sodipodi:nodetypes="cssssc" />
    <path
       style="fill:none;fill-opacity:1;stroke:#000000;stroke-width:0.2;stroke-dasharray:none;stroke-dashoffset:0;stroke-opacity:1;stroke-miterlimit:4"
       d="m 176.70077,19.709039 v 1.006962"
       id="path177" />
    <path
       style="fill:none;fill-opacity:1;stroke:#000000;stroke-width:0.2;stroke-dasharray:none;stroke-dashoffset:0;stroke-opacity:1;stroke-miterlimit:4"
       d="m 177.20426,20.212519 h -1.00697"
       id="path178" />
    <path
       style="fill:none;fill-opacity:1;stroke:#000000;stroke-width:0.2;stroke-dasharray:none;stroke-dashoffset:0;stroke-opacity:1;stroke-miterlimit:4"
       d="m 181.64345,19.07228 v 2.443369"
       id="path179" />
    <path
       style="fill:none;fill-opacity:1;stroke:#000000;stroke-width:0.2;stroke-dasharray:none;stroke-dashoffset:0;stroke-opacity:1;stroke-miterlimit:4"
       d="m 180.66609,19.08709 c 0.73863,0.08375 1.47445,0.118471 2.22125,0.118471"
       id="path180" />
    <path
       style="fill:none;stroke:#000000;stroke-width:0.2;stroke-dasharray:none;stroke-dashoffset:0;stroke-opacity:1;stroke-miterlimit:4"
       d="m 142.1234,5.4203626 c -0.29756,0.074256 -0.463,0.3755346 -0.56666,0.6476155 -0.3669,0.9631377 1.53234,0.992671 1.88214,0.667855 0.12884,-0.1196633 0.0292,-0.925332 -0.1619,-0.8297586 -0.30061,0.1503034 -0.54127,0.4773449 -0.7488,0.7285681 -0.25055,0.3032881 -0.33739,0.7798981 -0.62738,1.0119002"
       id="path181" />
    <path
       style="fill:none;fill-opacity:1;stroke:#000000;stroke-width:0.2;stroke-dasharray:none;stroke-dashoffset:0;stroke-opacity:1;stroke-miterlimit:4"
       d="M 134.63322,5.9371589 V 7.1677981"
       id="path184" />
    <path
       style="fill:none;fill-opacity:1;stroke:#000000;stroke-width:0.2;stroke-dasharray:none;stroke-dashoffset:0;stroke-opacity:1;stroke-miterlimit:4"
       d="m 135.24853,6.5524784 h -1.23062"
       id="path185" />
    <path
       style="fill:none;fill-opacity:1;stroke:#000000;stroke-width:0.2;stroke-dasharray:none;stroke-dashoffset:0;stroke-opacity:1;stroke-miterlimit:4"
       d="m 140.34992,5.4751602 c -0.0913,0.2885458 -0.24817,0.5426072 -0.39158,0.8055094 -0.0338,0.061956 -0.66973,1.1594714 -0.59294,1.1635134 0.39668,0.020874 0.79971,0 1.19707,0 0.0378,0 0.41394,0.064466 0.41394,0.055941 0,-0.1030549 -0.10938,-0.254623 -0.1342,-0.3580031 -0.0765,-0.3182536 -0.098,-0.6789773 -0.21256,-0.9845114 -0.0745,-0.1987424 -0.27968,-0.4653918 -0.27968,-0.6824456 z"
       id="path186" />
    <path
       style="fill:none;fill-opacity:1;stroke:#000000;stroke-width:0.2;stroke-dasharray:none;stroke-dashoffset:0;stroke-opacity:1;stroke-miterlimit:4"
       d="m 136.07971,5.8993523 c 0.0509,0.3521448 0.14984,0.6961825 0.20982,1.0490309 0.25452,1.4422633 -0.14384,-0.6381003 0.48132,-0.8762492 0.65301,-0.2487649 0.66705,1.3065809 0.73353,1.373069 0.0611,0.061044 0.42441,-1.2709806 0.55,-1.2866783 0.57897,-0.072371 0.64524,1.0061636 0.64524,1.4012317"
       id="path187"
       sodipodi:nodetypes="ccsssc" />
    <path
       style="fill:none;fill-opacity:1;stroke:#000000;stroke-width:0.2;stroke-dasharray:none;stroke-dashoffset:0;stroke-opacity:1;stroke-miterlimit:4"
       d="m 178.36227,19.889629 c 0.0439,0.303919 0.12931,0.600842 0.18107,0.905371 0.21966,1.24475 -0.12414,-0.550717 0.4154,-0.756252 0.56359,-0.214698 0.5757,1.12765 0.63308,1.185033 0.0527,0.05268 0.36628,-1.096925 0.47466,-1.110473 0.49968,-0.06246 0.55689,0.868374 0.55689,1.209339"
       id="path188"
       sodipodi:nodetypes="ccsssc" />
    <path
       style="fill:none;fill-opacity:1;stroke:#000000;stroke-width:0.2;stroke-dasharray:none;stroke-dashoffset:0;stroke-opacity:1;stroke-miterlimit:4"
       d="M 59.898796,13.502527 V 14.50949"
       id="path195" />
    <path
       style="fill:none;fill-opacity:1;stroke:#000000;stroke-width:0.2;stroke-dasharray:none;stroke-dashoffset:0;stroke-opacity:1;stroke-miterlimit:4"
       d="M 60.40229,14.006008 H 59.395312"
       id="path196" />
    <path
       style="fill:none;fill-opacity:1;stroke:#000000;stroke-width:0.2;stroke-dasharray:none;stroke-dashoffset:0;stroke-opacity:1;stroke-miterlimit:4"
       d="m 61.957159,12.865769 v 2.443368"
       id="path197" />
    <path
       style="fill:none;fill-opacity:1;stroke:#000000;stroke-width:0.2;stroke-dasharray:none;stroke-dashoffset:0;stroke-opacity:1;stroke-miterlimit:4"
       d="m 60.979806,12.880578 c 0.738625,0.08375 1.474444,0.118471 2.221245,0.118471"
       id="path198" />
    <path
       style="fill:none;fill-opacity:1;stroke:#000000;stroke-width:0.2;stroke-dasharray:none;stroke-dashoffset:0;stroke-opacity:1;stroke-miterlimit:4"
       d="m 58.391086,16.872632 c 1.970419,-0.08028 3.950642,0.149555 5.9074,0.149555"
       id="path193" />
    <path
       style="fill:none;fill-opacity:1;stroke:#000000;stroke-width:0.2;stroke-dasharray:none;stroke-dashoffset:0;stroke-opacity:1;stroke-miterlimit:4"
       d="m 63.387779,15.899006 c 0.421134,0.404289 0.188949,0.240725 0.634503,0.475879 0.316923,0.167265 0.647742,0.183868 0.978199,0.304034 0.564353,0.205221 -0.786435,1.33493 -0.912105,1.586265"
       id="path194" />
    <path
       style="fill:none;fill-opacity:1;stroke:#000000;stroke-width:0.2;stroke-dasharray:none;stroke-dashoffset:0;stroke-opacity:1;stroke-miterlimit:4"
       d="m 119.57168,16.872632 c 1.97042,-0.08028 3.95065,0.149555 5.9074,0.149555"
       id="path281" />
    <path
       style="fill:none;fill-opacity:1;stroke:#000000;stroke-width:0.2;stroke-dasharray:none;stroke-dashoffset:0;stroke-opacity:1;stroke-miterlimit:4"
       d="m 124.56838,15.899006 c 0.42113,0.404289 0.18895,0.240725 0.6345,0.475879 0.31692,0.167265 0.64774,0.183868 0.9782,0.304034 0.56435,0.205221 -0.78644,1.33493 -0.91211,1.586265"
       id="path282" />
    <path
       style="fill:none;stroke:#000000;stroke-width:0.2;stroke-miterlimit:4;stroke-dasharray:none;stroke-opacity:1"
       d="m 14.99852,19.583926 c -0.115774,-0.16688 -0.228225,-0.368952 -0.433698,-0.432672 -0.210648,-0.06533 -0.427659,0.05858 -0.561027,0.21734 -0.286992,0.341623 -0.422084,0.788019 -0.46531,1.224914 -0.0328,0.331528 0.0093,0.703335 0.24607,0.957846 0.219608,0.236023 0.574062,0.285508 0.877515,0.211677 0.467525,-0.113751 0.850196,-0.515186 0.932419,-0.993037 0.077,-0.447509 -0.09673,-0.897929 -0.340885,-1.266023"
       id="path2023"
       inkscape:path-effect="#path-effect2025"
       inkscape:original-d="m 14.99852,19.583926 c -0.153408,-0.224666 -0.323423,-0.512023 -0.653465,-0.438681 -0.376042,0.08357 -0.624398,0.632806 -0.713807,0.960639 -0.77585,2.844782 3.158199,1.72623 1.622356,-0.601913" />
    <path
       style="fill:none;stroke:#000000;stroke-width:0.2;stroke-miterlimit:4;stroke-dasharray:none;stroke-opacity:1"
       d="m 46.235635,19.369144 c -0.03235,0.733474 -0.0647,1.466948 -0.09705,2.200422"
       id="path2152"
       inkscape:path-effect="#path-effect2154"
       inkscape:original-d="m 46.235635,19.369144 -0.09705,2.200422"
       sodipodi:nodetypes="cc" />
    <path
       style="fill:none;stroke:#000000;stroke-width:0.2;stroke-miterlimit:4;stroke-dasharray:none;stroke-opacity:1"
       d="m 47.44423,19.57723 c -0.01463,0.670436 -0.02926,1.340871 -0.04389,2.011307"
       id="path2156"
       inkscape:path-effect="#path-effect2158"
       inkscape:original-d="m 47.44423,19.57723 -0.04389,2.011307"
       sodipodi:nodetypes="cc" />
    <path
       style="fill:none;stroke:#000000;stroke-width:0.2;stroke-miterlimit:4;stroke-dasharray:none;stroke-opacity:1"
       d="m 45.439129,20.1812 c -0.04895,-0.148242 -0.04331,-0.328776 0.06815,-0.448345 0.145763,-0.156378 0.365515,-0.211808 0.569364,-0.239188 0.467493,-0.06279 0.941343,-0.02078 1.407386,0.03415 0.23456,0.02764 0.467485,0.06699 0.701401,0.09916"
       id="path2168"
       inkscape:path-effect="#path-effect2170"
       inkscape:original-d="m 45.439129,20.1812 c -0.341645,-1.136597 2.384664,-0.594322 2.746298,-0.55423"
       sodipodi:nodetypes="cc" />
    <path
       style="fill:none;stroke:#000000;stroke-width:0.2;stroke-miterlimit:4;stroke-dasharray:none;stroke-opacity:1"
       d="m 25.702973,20.618991 c 0.0928,-0.378348 0.341878,-0.693712 0.610315,-0.964027 0.133903,-0.13484 0.25202,-0.288208 0.406738,-0.400126 0.06588,-0.04766 0.173776,-0.108857 0.239506,-0.0379 0.08291,0.0895 0.09039,0.221091 0.09333,0.336608 0.01006,0.395478 -0.05188,0.788055 -0.09538,1.180051 -0.03531,0.318264 -0.08522,0.637921 -0.07512,0.958983"
       id="path2814"
       inkscape:path-effect="#path-effect2816"
       inkscape:original-d="m 25.702973,20.618991 c 0.117949,-0.481452 0.500508,-0.847117 0.831756,-1.196895 0.94591,-0.998823 0.303604,1.465572 0.347633,2.270486" />
    <path
       style="fill:none;stroke:#000000;stroke-width:0.2;stroke-miterlimit:4;stroke-dasharray:none;stroke-opacity:1"
       d="m 17.323417,6.7870549 c 0.0928,-0.3783478 0.341878,-0.6937105 0.610315,-0.9640268 0.133903,-0.1348407 0.252019,-0.2882082 0.406738,-0.4001261 0.06588,-0.047657 0.173776,-0.1088567 0.239506,-0.037898 0.08291,0.089503 0.09039,0.2210907 0.09333,0.3366071 0.01006,0.3954784 -0.05189,0.7880554 -0.09538,1.1800519 -0.03531,0.318264 -0.08522,0.6379208 -0.07512,0.9589825"
       id="path2978"
       inkscape:path-effect="#path-effect2982"
       inkscape:original-d="m 17.323417,6.7870549 c 0.117949,-0.481452 0.500508,-0.847117 0.831756,-1.196895 0.94591,-0.998823 0.303604,1.465572 0.347633,2.270486" />
    <path
       style="fill:none;stroke:#000000;stroke-width:0.2;stroke-miterlimit:4;stroke-dasharray:none;stroke-opacity:1"
       d="m 74.96083,6.8408632 c 0.0928,-0.3783478 0.341878,-0.6937105 0.610315,-0.9640268 0.133903,-0.1348407 0.252019,-0.2882082 0.406738,-0.4001261 0.06588,-0.047657 0.173776,-0.1088567 0.239506,-0.037898 0.08291,0.089503 0.09039,0.2210907 0.09333,0.3366071 0.01006,0.3954784 -0.05188,0.7880554 -0.09538,1.1800519 -0.03531,0.318264 -0.08522,0.6379208 -0.07512,0.9589825"
       id="path3000"
       inkscape:path-effect="#path-effect3004"
       inkscape:original-d="m 74.96083,6.8408632 c 0.117949,-0.481452 0.500508,-0.847117 0.831756,-1.196895 0.94591,-0.998823 0.303604,1.465572 0.347633,2.270486" />
    <path
       style="fill:none;stroke:#000000;stroke-width:0.2;stroke-dasharray:none;stroke-opacity:1;stroke-miterlimit:4"
       d="m 74.81034,20.234787 c -0.2066,-0.606375 0.86182,-0.895842 1.02719,-0.352466 0.13343,0.438406 0.0415,0.800871 -0.26018,1.061364 -0.3129,0.305261 -1.09611,0.828427 -1.07217,1.231823 0.77952,0.05196 0.7647,0.02857 1.54329,0.02857"
       id="path3246"
       sodipodi:nodetypes="csssc" />
    <path
       style="fill:none;stroke:#000000;stroke-width:0.2;stroke-dasharray:none;stroke-opacity:1;stroke-miterlimit:4"
       d="m 78.82009,20.399251 c 0.79792,0.146331 0.97858,0.02868 1.30916,0.05035 0.1161,0.0077 0.0395,0.222417 0,0.261833 -0.10126,0.10125 -1.5931,1.441207 -1.41636,1.437164 0.56952,-0.01303 0.72649,-0.0492 1.0941,-0.04744 H 80.522"
       id="path3248"
       sodipodi:nodetypes="cssssc" />
    <path
       style="fill:none;stroke:#000000;stroke-width:0.2;stroke-dasharray:none;stroke-opacity:1;stroke-miterlimit:4"
       d="m 78.85682,21.283961 c 0.45808,-0.0334 0.73677,0.113009 1.18001,0.14403"
       id="path3250"
       sodipodi:nodetypes="cc" />
    <path
       style="fill:none;stroke:#000000;stroke-width:0.2;stroke-dasharray:none;stroke-opacity:1;stroke-miterlimit:4"
       d="m 76.90816,20.734521 c 0.0216,0.595092 0.0201,1.048333 0.0201,1.62135"
       id="path3252" />
    <path
       style="fill:none;stroke:#000000;stroke-width:0.2;stroke-dasharray:none;stroke-opacity:1;stroke-miterlimit:4"
       d="m 77.75852,20.691226 c 0.0751,0.561996 -0.018,1.127008 0.0111,1.687642"
       id="path3254" />
    <path
       style="fill:none;stroke:#000000;stroke-width:0.2;stroke-dasharray:none;stroke-opacity:1;stroke-miterlimit:4"
       d="m 76.37442,20.805011 c 0.64101,-0.217963 1.38631,-0.0018 2.04431,-0.181267"
       id="path3256" />
    <path
       style="fill:none;stroke:#000000;stroke-width:0.2;stroke-miterlimit:4;stroke-dasharray:none;stroke-opacity:1"
       d="m 88.79132,20.492188 c 0.0928,-0.378348 0.341878,-0.693712 0.610315,-0.964027 0.133903,-0.13484 0.25202,-0.288208 0.406738,-0.400126 0.06588,-0.04766 0.173776,-0.108857 0.239506,-0.0379 0.08291,0.0895 0.09039,0.221091 0.09333,0.336608 0.01006,0.395478 -0.05188,0.788055 -0.09538,1.180051 -0.03531,0.318264 -0.08522,0.637921 -0.07512,0.958983"
       id="path3258"
       inkscape:path-effect="#path-effect3262"
       inkscape:original-d="m 88.79132,20.492188 c 0.117949,-0.481452 0.500508,-0.847117 0.831756,-1.196895 0.94591,-0.998823 0.303604,1.465572 0.347633,2.270486" />
    <path
       style="fill:none;stroke:#000000;stroke-width:0.2;stroke-miterlimit:4;stroke-dasharray:none;stroke-opacity:1"
       d="m 132.05106,6.7675019 c 0.0928,-0.3783481 0.34189,-0.6937083 0.61032,-0.9640268 0.1339,-0.1348405 0.25202,-0.2882036 0.40674,-0.4001261 0.0659,-0.047657 0.17377,-0.1088523 0.2395,-0.037898 0.0829,0.089503 0.0904,0.2210905 0.0933,0.3366071 0.0101,0.3954785 -0.0519,0.7880563 -0.0954,1.1800519 -0.0353,0.318264 -0.0852,0.6379208 -0.0751,0.9589825"
       id="path3783"
       inkscape:path-effect="#path-effect3787"
       inkscape:original-d="m 132.05106,6.7675019 c 0.11795,-0.481452 0.50051,-0.847117 0.83176,-1.196895 0.94591,-0.998823 0.3036,1.465572 0.34763,2.270486" />
    <path
       style="fill:none;stroke:#000000;stroke-width:0.2;stroke-miterlimit:4;stroke-dasharray:none;stroke-opacity:1"
       d="m 173.68813,20.488487 c 0.0928,-0.378348 0.34189,-0.693709 0.61032,-0.964027 0.1339,-0.13484 0.25202,-0.288204 0.40674,-0.400126 0.0659,-0.04766 0.17377,-0.108853 0.2395,-0.0379 0.0829,0.0895 0.0904,0.221091 0.0933,0.336608 0.0101,0.395478 -0.0519,0.788055 -0.0954,1.180051 -0.0353,0.318264 -0.0852,0.637921 -0.0751,0.958983"
       id="path3789"
       inkscape:path-effect="#path-effect3793"
       inkscape:original-d="m 173.68813,20.488487 c 0.11795,-0.481452 0.50051,-0.847117 0.83176,-1.196895 0.94591,-0.998823 0.3036,1.465572 0.34763,2.270486" />
    <path
       style="fill:none;fill-opacity:1;stroke:#000000;stroke-width:0.2;stroke-dasharray:none;stroke-dashoffset:0;stroke-opacity:1;stroke-miterlimit:4"
       d="M 59.898796,13.502527 V 14.50949"
       id="path3897" />
    <path
       style="fill:none;fill-opacity:1;stroke:#000000;stroke-width:0.2;stroke-dasharray:none;stroke-dashoffset:0;stroke-opacity:1;stroke-miterlimit:4"
       d="M 60.40229,14.006008 H 59.395312"
       id="path3899" />
    <path
       style="fill:none;fill-opacity:1;stroke:#000000;stroke-width:0.2;stroke-dasharray:none;stroke-dashoffset:0;stroke-opacity:1;stroke-miterlimit:4"
       d="m 61.957159,12.865769 v 2.443368"
       id="path3901" />
    <path
       style="fill:none;fill-opacity:1;stroke:#000000;stroke-width:0.2;stroke-dasharray:none;stroke-dashoffset:0;stroke-opacity:1;stroke-miterlimit:4"
       d="m 60.979806,12.880578 c 0.738625,0.08375 1.474444,0.118471 2.221245,0.118471"
       id="path3903" />
    <path
       style="fill:none;fill-opacity:1;stroke:#000000;stroke-width:0.2;stroke-dasharray:none;stroke-dashoffset:0;stroke-opacity:1;stroke-miterlimit:4"
       d="m 124.28547,12.361073 v 2.535822"
       id="path3909" />
    <path
       style="fill:none;fill-opacity:1;stroke:#000000;stroke-width:0.2;stroke-dasharray:none;stroke-dashoffset:0;stroke-opacity:1;stroke-miterlimit:4"
       d="m 123.27113,12.376443 c 0.76658,0.08692 1.53024,0.122954 2.3053,0.122954"
       id="path3911" />
    <path
       style="fill:none;fill-opacity:1;stroke:#000000;stroke-width:0.2;stroke-dasharray:none;stroke-dashoffset:0;stroke-opacity:1;stroke-miterlimit:4"
       d="m 120.88014,13.209349 c 0.0456,0.315419 0.1342,0.623577 0.18792,0.939629 0.22797,1.291849 -0.12884,-0.571555 0.43112,-0.784867 0.58491,-0.222822 0.59748,1.170318 0.65703,1.229872 0.0547,0.05467 0.38014,-1.138431 0.49262,-1.152491 0.51859,-0.06482 0.57796,0.901232 0.57796,1.255098"
       id="path3913"
       sodipodi:nodetypes="ccsssc" />
  </g>
</svg>
