<?xml version="1.0" encoding="UTF-8" standalone="no"?>
<!-- Created with Inkscape (http://www.inkscape.org/) -->

<svg
   width="10cm"
   height="2cm"
   viewBox="0 0 100 20"
   version="1.1"
   id="svg1"
   inkscape:version="1.3 (0e150ed6c4, 2023-07-21)"
   sodipodi:docname="1a.svg"
   inkscape:export-filename="1a.png"
   inkscape:export-xdpi="300.60001"
   inkscape:export-ydpi="300.60001"
   xmlns:inkscape="http://www.inkscape.org/namespaces/inkscape"
   xmlns:sodipodi="http://sodipodi.sourceforge.net/DTD/sodipodi-0.dtd"
   xmlns="http://www.w3.org/2000/svg"
   xmlns:svg="http://www.w3.org/2000/svg">
  <sodipodi:namedview
     id="namedview1"
     pagecolor="#ffffff"
     bordercolor="#000000"
     borderopacity="0.25"
     inkscape:showpageshadow="2"
     inkscape:pageopacity="0.0"
     inkscape:pagecheckerboard="0"
     inkscape:deskcolor="#d1d1d1"
     inkscape:document-units="mm"
     inkscape:zoom="1.9578168"
     inkscape:cx="164.21353"
     inkscape:cy="24.772491"
     inkscape:window-width="1680"
     inkscape:window-height="997"
     inkscape:window-x="-8"
     inkscape:window-y="-8"
     inkscape:window-maximized="1"
     inkscape:current-layer="layer1" />
  <defs
     id="defs1" />
  <g
     inkscape:label="Layer 1"
     inkscape:groupmode="layer"
     id="layer1">
    <g
       id="g25"
       transform="translate(1.547951,-9.8195161)">
      <path
         style="fill:none;stroke:#000000;stroke-width:0.264583;stroke-opacity:1"
         d="M 15.289575,15.958494 C 36.899736,15.873013 58.482581,15.671815 80.07915,15.671815"
         id="path5" />
      <path
         style="fill:none;stroke:#000000;stroke-width:0.264583;stroke-opacity:1"
         d="M 17.105212,13.569498 C 6.4790711,16.70145 14.651387,18.34749 19.494208,18.34749"
         id="path6" />
      <path
         style="fill:none;stroke:#000000;stroke-width:0.264583;stroke-opacity:1"
         d="m 77.116794,13.442603 c 8.050929,3.243215 10.966267,2.198227 3.822395,5.037178"
         id="path7" />
    </g>
    <g
       id="g24"
       transform="translate(-0.0765664,-10.424003)">
      <path
         style="fill:none;stroke:#000000;stroke-width:0.264583;stroke-opacity:1"
         d="m 27.839257,13.442603 c 0.249269,1.874825 0.202713,3.665886 0.202713,5.544852"
         id="path8" />
      <path
         style="fill:none;stroke:#000000;stroke-width:0.264583;stroke-opacity:1"
         d="m 28.476834,20.521477 c -0.142322,-0.573572 -0.777565,-0.558098 -1.146717,-0.16723 -0.799801,0.846847 -0.888379,3.070972 0.788368,2.651786 0.583578,-0.145895 0.914188,-1.636938 0.812258,-2.126207 -0.03732,-0.17914 -0.236546,-0.332107 -0.35835,-0.453909"
         id="path9" />
    </g>
    <g
       id="g23"
       transform="translate(4.1280668,-10.674033)">
      <path
         style="fill:none;stroke:#000000;stroke-width:0.264583;stroke-opacity:1"
         d="m 67.943049,13.808398 c -0.157342,1.729205 -0.2389,3.447689 -0.2389,5.179057"
         id="path10" />
      <path
         style="fill:none;stroke:#000000;stroke-width:0.264583;stroke-opacity:1"
         d="m 65.888512,20.593147 c 0.01593,0.302606 0.02907,0.605371 0.04778,0.907818 0.02907,0.470016 0.04426,0.941396 0.09556,1.409508 0.136355,1.244256 0.481719,-2.131689 0.907817,-2.078427 0.420989,0.05262 0.294185,1.256045 0.286681,1.481178 -0.0048,0.145236 -0.106915,0.570997 -0.07167,0.430019 0.112538,-0.450152 0.253397,-0.851774 0.453908,-1.266168 1.289611,-2.665196 1.00788,0.934248 1.24228,1.481178"
         id="path11" />
    </g>
    <g
       id="g26"
       transform="translate(0.9745919,-4.6988415)"
       style="fill:none;stroke:#b20097;stroke-opacity:1">
      <g
         id="g22"
         transform="translate(-3.3573767,-5.5061842)"
         style="fill:none;stroke:#b20097;stroke-opacity:1">
        <path
           style="fill:none;stroke:#b20097;stroke-width:0.264583;stroke-opacity:1"
           d="M 40.371498,18.925269 C 39.024311,16.395687 39.26736,14.849908 40.228422,13.125073"
           id="path14" />
        <path
           style="fill:none;stroke:#b20097;stroke-width:0.264583;stroke-opacity:1"
           d="m 39.012341,20.12015 c 0.01593,0.302606 0.02907,0.605371 0.04778,0.907818 0.02907,0.470016 0.04426,0.941396 0.09556,1.409508 0.136355,1.244256 0.481719,-2.131689 0.907817,-2.078427 0.420989,0.05262 0.294185,1.256045 0.286681,1.481178 -0.0048,0.145236 -0.106915,0.570997 -0.07167,0.430019 0.112538,-0.450152 0.253397,-0.851774 0.453908,-1.266168 1.289611,-2.665196 1.00788,0.934248 1.24228,1.481178"
           id="path16" />
        <path
           style="fill:none;stroke:#b20097;stroke-width:0.264583;stroke-opacity:1"
           d="m 40.196831,24.55888 c -2.046338,1.613689 0.538419,1.194498 1.717392,1.194498"
           id="path18" />
        <path
           style="fill:none;stroke:#b20097;stroke-width:0.264583;stroke-opacity:1"
           d="m 41.221414,24.941119 c 0.01987,0.785225 -0.125465,1.974279 -0.450054,2.317327"
           id="path19" />
        <path
           style="fill:none;stroke:#b20097;stroke-width:0.264583;stroke-opacity:1"
           d="m 38.534506,23.441821 c 1.287852,-0.277585 2.938272,0.155143 4.085185,0"
           id="path20" />
      </g>
      <g
         id="g21"
         transform="translate(-2.0122136,-5.321243)"
         style="fill:none;stroke:#b20097;stroke-opacity:1">
        <path
           style="fill:none;stroke:#b20097;stroke-width:0.264583;stroke-opacity:1"
           d="m 50.073359,13.122868 c 1.347187,2.529582 1.104138,4.075361 0.143076,5.800196"
           id="path13" />
        <path
           style="fill:none;stroke:#b20097;stroke-width:0.264583;stroke-opacity:1"
           d="m 49.073969,20.12015 c 0.01593,0.302606 0.02907,0.605371 0.04778,0.907818 0.02907,0.470016 0.04426,0.941396 0.09556,1.409508 0.136355,1.244256 0.481719,-2.131689 0.907817,-2.078427 0.420989,0.05262 0.294185,1.256045 0.286681,1.481178 -0.0048,0.145236 -0.106915,0.570997 -0.07167,0.430019 0.112538,-0.450152 0.253397,-0.851774 0.453908,-1.266168 1.289611,-2.665196 1.00788,0.934248 1.24228,1.481178"
           id="path15" />
        <path
           style="fill:none;stroke:#b20097;stroke-width:0.264583;stroke-opacity:1"
           d="m 48.639961,23.345953 c -0.816936,0.03649 3.45173,0.03216 3.870174,0.19284"
           id="path17" />
        <path
           style="fill:none;stroke:#b20097;stroke-width:0.264583;stroke-opacity:1"
           d="m 49.620735,25.150641 c -0.389601,-0.987176 2.139651,-1.126943 1.649675,0 -0.225738,0.519195 -2.988509,1.696186 -0.883928,1.696186 0.407098,0 0.812829,0.0051 1.218387,-0.02389"
           id="path21" />
      </g>
    </g>
  </g>
</svg>
