<?xml version="1.0" encoding="UTF-8" standalone="no"?>
<!-- Created with Inkscape (http://www.inkscape.org/) -->

<svg
   width="10cm"
   height="2cm"
   viewBox="0 0 100 20"
   version="1.1"
   id="svg1"
   inkscape:version="1.3 (0e150ed6c4, 2023-07-21)"
   sodipodi:docname="1b.svg"
   inkscape:export-filename="1b.png"
   inkscape:export-xdpi="300.60001"
   inkscape:export-ydpi="300.60001"
   xmlns:inkscape="http://www.inkscape.org/namespaces/inkscape"
   xmlns:sodipodi="http://sodipodi.sourceforge.net/DTD/sodipodi-0.dtd"
   xmlns="http://www.w3.org/2000/svg"
   xmlns:svg="http://www.w3.org/2000/svg">
  <sodipodi:namedview
     id="namedview1"
     pagecolor="#ffffff"
     bordercolor="#000000"
     borderopacity="0.25"
     inkscape:showpageshadow="2"
     inkscape:pageopacity="0.0"
     inkscape:pagecheckerboard="0"
     inkscape:deskcolor="#d1d1d1"
     inkscape:document-units="mm"
     inkscape:zoom="1.9578168"
     inkscape:cx="229.33709"
     inkscape:cy="27.83713"
     inkscape:window-width="1680"
     inkscape:window-height="997"
     inkscape:window-x="-8"
     inkscape:window-y="-8"
     inkscape:window-maximized="1"
     inkscape:current-layer="layer1"
     showgrid="false" />
  <defs
     id="defs1" />
  <g
     inkscape:label="Layer 1"
     inkscape:groupmode="layer"
     id="layer1">
    <path
       style="fill:none;stroke:#000000;stroke-width:0.265;stroke-dasharray:none;stroke-opacity:1"
       d="M 4.810992,10.220711 C 15.172696,10.089021 25.521302,9.7790613 35.876491,9.7790613"
       id="path5" />
    <path
       style="fill:none;stroke:#000000;stroke-width:0.264583;stroke-opacity:1"
       d="M 6.625523,7.6081908 C -4.0006179,10.740143 4.171698,12.386183 9.014519,12.386183"
       id="path6" />
    <g
       id="g24"
       transform="translate(-15.679245,-5.7888614)">
      <path
         style="fill:none;stroke:#000000;stroke-width:0.264583;stroke-opacity:1"
         d="m 27.839257,13.442603 c 0.249269,1.874825 0.202713,3.665886 0.202713,5.544852"
         id="path8" />
      <path
         style="fill:none;stroke:#000000;stroke-width:0.264583;stroke-opacity:1"
         d="m 28.476834,20.521477 c -0.142322,-0.573572 -0.777565,-0.558098 -1.146717,-0.16723 -0.799801,0.846847 -0.888379,3.070972 0.788368,2.651786 0.583578,-0.145895 0.914188,-1.636938 0.812258,-2.126207 -0.03732,-0.17914 -0.236546,-0.332107 -0.35835,-0.453909"
         id="path9" />
    </g>
    <g
       id="g23"
       transform="translate(-36.100328,-6.0388915)">
      <path
         style="fill:none;stroke:#000000;stroke-width:0.264583;stroke-opacity:1"
         d="m 67.943049,13.808398 c -0.157342,1.729205 -0.2389,3.447689 -0.2389,5.179057"
         id="path10" />
      <path
         style="fill:none;stroke:#000000;stroke-width:0.264583;stroke-opacity:1"
         d="m 65.888512,20.593147 c 0.01593,0.302606 0.02907,0.605371 0.04778,0.907818 0.02907,0.470016 0.04426,0.941396 0.09556,1.409508 0.136355,1.244256 0.481719,-2.131689 0.907817,-2.078427 0.420989,0.05262 0.294185,1.256045 0.286681,1.481178 -0.0048,0.145236 -0.106915,0.570997 -0.07167,0.430019 0.112538,-0.450152 0.253397,-0.851774 0.453908,-1.266168 1.289611,-2.665196 1.00788,0.934248 1.24228,1.481178"
         id="path11" />
    </g>
    <path
       style="fill:none;stroke:#000000;stroke-width:0.265;stroke-dasharray:none;stroke-opacity:1"
       d="M 43.647626,9.8636945 C 60.105514,9.7796314 76.542597,9.5817698 92.990132,9.5817698"
       id="path12" />
    <path
       style="fill:none;stroke:#000000;stroke-width:0.264583;stroke-opacity:1"
       d="m 90.016676,7.3501808 c 8.050929,3.2432152 10.966264,2.198227 3.822395,5.0371782"
       id="path23" />
    <path
       style="fill:none;stroke:#000000;stroke-width:0.264583;stroke-opacity:1"
       d="m 55.641165,7.2362917 c 0.249269,1.874825 0.202713,3.6658863 0.202713,5.5448523"
       id="path32" />
    <g
       id="g49"
       transform="translate(3.8314187,-0.57909548)">
      <path
         style="fill:none;stroke:#000000;stroke-width:0.264583;stroke-opacity:1"
         d="m 51.969141,15.345169 c 0.01593,0.302606 0.02907,0.605372 0.04778,0.907818 0.02907,0.470016 0.04426,0.941396 0.09556,1.409508 0.136355,1.244256 0.481719,-2.131689 0.907817,-2.078427 0.420989,0.05262 0.294185,1.256045 0.286681,1.481178 -0.0048,0.145236 -0.106915,0.570997 -0.07167,0.430019 0.112538,-0.450152 0.253397,-0.851774 0.453908,-1.266168 1.289611,-2.665196 1.00788,0.934248 1.24228,1.481178"
         id="path35" />
      <path
         style="fill:none;stroke:#000000;stroke-width:0.264999;stroke-dasharray:none"
         d="m 49.841856,14.389409 c 0.07995,0.951235 7.94e-4,2.754523 0.289727,3.621662"
         id="path37" />
      <path
         style="fill:none;stroke:#000000;stroke-width:0.264999;stroke-dasharray:none"
         d="m 51.240846,15.537029 c -0.288404,0.315331 -0.549767,0.657712 -0.865206,0.945994 -0.386085,0.352844 -0.676328,-0.265435 0.152035,0.388533 0.262988,0.207625 0.680908,0.65544 0.947997,0.751381"
         id="path38" />
    </g>
    <path
       style="fill:none;stroke:#000000;stroke-width:0.264583;stroke-opacity:1"
       d="m 78.880168,6.907346 c -0.157342,1.729205 -0.2389,3.44769 -0.2389,5.179058"
       id="path30" />
    <path
       style="fill:none;stroke:#000000;stroke-width:0.264583;stroke-opacity:1"
       d="m 81.929536,14.596122 c 5.45e-4,0.303024 -0.0017,0.606067 0.0016,0.909073 0.0052,0.470886 -0.0036,0.942429 0.02387,1.412542 0.073,1.249574 0.589332,-2.104481 1.012176,-2.029653 0.417774,0.07393 0.230031,1.269362 0.211106,1.493824 -0.01217,0.144805 -0.135769,0.564832 -0.09341,0.425825 0.135249,-0.443857 0.296319,-0.837809 0.517612,-1.241488 1.42327,-2.596279 0.959144,0.984218 1.165472,1.542344"
       id="path31" />
    <path
       style="fill:none;stroke:#000000;stroke-width:0.252141;stroke-dasharray:none"
       d="m 74.399029,14.003287 c 0.03002,0.907774 -0.132318,2.617525 0.100348,3.455483"
       id="path39" />
    <path
       style="fill:none;stroke:#000000;stroke-width:0.252141;stroke-dasharray:none"
       d="m 75.672977,15.161399 c -0.289289,0.285711 -0.55419,0.598432 -0.867863,0.857133 -0.383924,0.316638 -0.629859,-0.284903 0.125701,0.376548 0.239874,0.210002 0.615369,0.655728 0.864535,0.759799"
       id="path40" />
    <path
       style="fill:none;stroke:#000000;stroke-width:0.252141;stroke-dasharray:none"
       d="m 76.920781,15.139642 c -0.01691,0.446746 -0.165083,0.868003 -0.11472,1.306596"
       id="path42" />
    <path
       style="fill:none;stroke:#000000;stroke-width:0.252141;stroke-dasharray:none"
       d="m 76.196768,15.768603 c 0.53191,-0.104757 1.166706,0.146277 1.685497,0.08569"
       id="path43" />
    <path
       style="fill:none;stroke:#000000;stroke-width:0.252141;stroke-dasharray:none"
       d="m 78.532986,15.717243 c 0.103248,-0.324666 0.356614,-0.549883 0.556315,-0.812591 0.189995,-0.24994 0.28104,-0.446487 0.438849,-0.718006 0.03613,-0.06216 0.177895,-0.184082 0.106109,-0.187731 -0.03534,-0.0018 -0.204865,2.763434 -0.221714,3.094838"
       id="path44" />
    <path
       style="fill:none;stroke:#000000;stroke-width:0.252141;stroke-dasharray:none"
       d="m 74.059464,13.490178 c -1.831643,0.484358 -1.911738,3.642366 -0.515002,4.431812"
       id="path47" />
    <path
       style="fill:none;stroke:#000000;stroke-width:0.252141;stroke-dasharray:none"
       d="m 80.271177,13.500198 c 0.433436,0.727681 0.545625,0.742117 0.642379,1.609855 0.06976,0.625675 -0.300599,2.760732 -1.24417,2.946296"
       id="path48" />
    <g
       id="g77"
       transform="translate(-0.6334498,0.47873903)"
       style="fill:none;fill-opacity:1;stroke:#ff870d;stroke-opacity:1">
      <g
         id="g64"
         style="fill:none;fill-opacity:1;stroke:#ff870d;stroke-opacity:1" />
    </g>
    <g
       id="g69"
       transform="translate(-12.768609,6.6778913)"
       style="fill:none;fill-opacity:1;stroke:#ff870d;stroke-opacity:1" />
    <circle
       style="fill:#b20097;fill-opacity:1;stroke:#b20097;stroke-width:0.264999;stroke-dasharray:none;stroke-opacity:1"
       id="path50"
       cx="65.83812"
       cy="9.490881"
       r="0.7298196" />
    <g
       id="g1"
       transform="translate(2.6458334)">
      <path
         style="fill:none;fill-opacity:1;stroke:#b20097;stroke-width:0.264583;stroke-opacity:1"
         d="M 45.666498,13.376132 C 44.319311,10.84655 44.56236,9.3007713 45.523422,7.5759363"
         id="path14" />
      <path
         style="fill:none;fill-opacity:1;stroke:#b20097;stroke-width:0.264999;stroke-dasharray:none;stroke-opacity:1"
         d="M 44.160227,4.0144531 C 43.822045,4.8999693 42.437173,5.3432842 42.249031,6.2839994"
         id="path58" />
      <path
         style="fill:none;fill-opacity:1;stroke:#b20097;stroke-width:0.264999;stroke-dasharray:none;stroke-opacity:1"
         d="m 42.94184,3.967181 c 0.412768,0.476898 0.462174,1.6681104 0.848092,2.054029"
         id="path60" />
      <path
         style="fill:none;fill-opacity:1;stroke:#b20097;stroke-width:0.264999;stroke-dasharray:none;stroke-opacity:1"
         d="m 44.972485,5.2089513 c 0.579554,0.1241901 0.330663,0.1075047 0.74059,0.1075047"
         id="path61" />
      <path
         style="fill:none;fill-opacity:1;stroke:#b20097;stroke-width:0.264999;stroke-dasharray:none;stroke-opacity:1"
         d="M 47.83928,4.5639223 C 47.7656,4.2028986 47.82229,3.7093528 47.24203,3.7277736 c -0.129444,0.00411 -0.226036,0.1547281 -0.274732,0.2747346 -0.108575,0.2675549 -0.09909,0.7251173 0.131394,0.9555985 0.05912,0.059118 0.426546,0.1261854 0.310568,-0.04778 -0.274502,-0.4117544 -1.090551,0.7695107 -0.322514,1.2303331 0.373566,0.2241391 0.868982,0.2409182 1.290059,0.1672296 0.273759,-0.047908 0.513635,-0.2676313 0.513635,-0.1929884"
         id="path62" />
    </g>
    <path
       style="fill:none;fill-opacity:1;stroke:#b20097;stroke-width:0.264999;stroke-dasharray:none;stroke-opacity:1"
       d="m 66.543201,11.700371 c -0.338182,0.885516 -1.723054,1.328831 -1.911196,2.269546"
       id="path68" />
    <path
       style="fill:none;fill-opacity:1;stroke:#b20097;stroke-width:0.264999;stroke-dasharray:none;stroke-opacity:1"
       d="m 65.324814,11.653099 c 0.412768,0.476898 0.462174,1.66811 0.848092,2.054029"
       id="path69" />
    <g
       id="g2"
       transform="translate(-1.5875)">
      <path
         style="fill:none;fill-opacity:1;stroke:#b20097;stroke-width:0.264583;stroke-opacity:1"
         d="m 85.62869,6.9941252 c 1.347187,2.529582 1.104138,4.0753608 0.143076,5.8001958"
         id="path13" />
      <g
         id="g70"
         transform="translate(5.3826162,-1.5254037)"
         style="fill:none;fill-opacity:1;stroke:#b20097;stroke-opacity:1">
        <g
           id="g68"
           style="fill:none;fill-opacity:1;stroke:#b20097;stroke-opacity:1">
          <path
             style="fill:none;fill-opacity:1;stroke:#b20097;stroke-width:0.264999;stroke-dasharray:none;stroke-opacity:1"
             d="M 79.31181,5.0224794 C 78.973628,5.9079956 77.588756,6.3513105 77.400614,7.2920257"
             id="path64" />
          <path
             style="fill:none;fill-opacity:1;stroke:#b20097;stroke-width:0.264999;stroke-dasharray:none;stroke-opacity:1"
             d="m 78.093423,4.9752073 c 0.412768,0.476898 0.462174,1.6681104 0.848092,2.054029"
             id="path65" />
        </g>
        <path
           style="fill:none;fill-opacity:1;stroke:#b20097;stroke-width:0.264999;stroke-dasharray:none;stroke-opacity:1"
           d="m 82.990863,5.5719486 c -0.07368,-0.3610237 -0.01699,-0.8545695 -0.59725,-0.8361487 -0.129444,0.00411 -0.226036,0.1547281 -0.274732,0.2747346 -0.108575,0.2675549 -0.09909,0.7251173 0.131394,0.9555985 0.05912,0.059118 0.426546,0.1261854 0.310568,-0.04778 -0.274502,-0.4117544 -1.090551,0.7695107 -0.322514,1.2303331 0.373566,0.2241391 0.868982,0.2409182 1.290059,0.1672296 0.273759,-0.047908 0.513635,-0.2676313 0.513635,-0.1929884"
           id="path67" />
      </g>
      <path
         style="fill:none;fill-opacity:1;stroke:#b20097;stroke-width:0.264999;stroke-dasharray:none;stroke-opacity:1"
         d="m 85.941426,4.0983352 c -0.03122,0.3394861 -0.109765,0.760041 -0.194267,1.055797"
         id="path70" />
      <path
         style="fill:none;fill-opacity:1;stroke:#b20097;stroke-width:0.264999;stroke-dasharray:none;stroke-opacity:1"
         d="m 85.291057,4.638367 c 0.452755,-0.026708 0.895792,-0.046282 1.334526,0.051215"
         id="path71" />
    </g>
    <circle
       style="fill:#000000;fill-opacity:1;stroke:#000000;stroke-width:0.404534;stroke-dasharray:none"
       id="circle73"
       cx="37.793919"
       cy="9.8507309"
       r="0.10940745" />
    <circle
       style="fill:#000000;fill-opacity:1;stroke:#000000;stroke-width:0.404534;stroke-dasharray:none"
       id="circle74"
       cx="39.800674"
       cy="9.8507309"
       r="0.10940745" />
    <circle
       style="fill:#000000;fill-opacity:1;stroke:#000000;stroke-width:0.404534;stroke-dasharray:none"
       id="circle75"
       cx="41.80743"
       cy="9.8507309"
       r="0.10940745" />
  </g>
</svg>
