<?xml version="1.0" encoding="UTF-8" standalone="no"?>
<!-- Created with Inkscape (http://www.inkscape.org/) -->

<svg
   width="11cm"
   height="7cm"
   viewBox="0 0 110 70"
   version="1.1"
   id="svg1"
   inkscape:version="1.3 (0e150ed6c4, 2023-07-21)"
   sodipodi:docname="4.svg"
   inkscape:export-filename="4.png"
   inkscape:export-xdpi="300.60001"
   inkscape:export-ydpi="300.60001"
   xmlns:inkscape="http://www.inkscape.org/namespaces/inkscape"
   xmlns:sodipodi="http://sodipodi.sourceforge.net/DTD/sodipodi-0.dtd"
   xmlns="http://www.w3.org/2000/svg"
   xmlns:svg="http://www.w3.org/2000/svg">
  <sodipodi:namedview
     id="namedview1"
     pagecolor="#ffffff"
     bordercolor="#000000"
     borderopacity="0.25"
     inkscape:showpageshadow="2"
     inkscape:pageopacity="0.0"
     inkscape:pagecheckerboard="0"
     inkscape:deskcolor="#d1d1d1"
     inkscape:document-units="mm"
     inkscape:zoom="1.3843855"
     inkscape:cx="109.796"
     inkscape:cy="167.2222"
     inkscape:window-width="1680"
     inkscape:window-height="997"
     inkscape:window-x="-8"
     inkscape:window-y="-8"
     inkscape:window-maximized="1"
     inkscape:current-layer="layer1"
     showgrid="false" />
  <defs
     id="defs1" />
  <g
     inkscape:label="Layer 1"
     inkscape:groupmode="layer"
     id="layer1">
    <g
       id="g6"
       transform="translate(-2.7443839,-4.2255522)">
      <g
         id="g70"
         transform="translate(-4.0135134,-10.054399)">
        <g
           id="g77"
           transform="translate(-0.6334498,0.47873903)"
           style="fill:none;fill-opacity:1;stroke:#ff870d;stroke-opacity:1">
          <g
             id="g64"
             style="fill:none;fill-opacity:1;stroke:#ff870d;stroke-opacity:1" />
        </g>
        <g
           id="g69"
           transform="translate(-12.768609,6.6778913)"
           style="fill:none;fill-opacity:1;stroke:#ff870d;stroke-opacity:1" />
        <g
           id="g55"
           transform="translate(1.3255512,-9.9910911)">
          <path
             style="fill:none;stroke:#000000;stroke-width:0.265;stroke-dasharray:none;stroke-opacity:1"
             d="m 53.605926,73.921016 c 16.457888,-0.08406 32.894971,-0.281925 49.342504,-0.281925"
             id="path12" />
          <path
             style="fill:none;stroke:#000000;stroke-width:0.264583;stroke-opacity:1"
             d="m 99.974976,71.407502 c 8.050934,3.243215 10.966264,2.198227 3.822394,5.037178"
             id="path23" />
          <path
             style="fill:none;stroke:#000000;stroke-width:0.264999;stroke-opacity:1"
             d="M 57.74366,88.308901 C 63.50338,72.044604 80.404653,31.587222 103.73842,44.339768"
             id="path21" />
          <path
             style="fill:none;stroke:#b20097;stroke-width:0.264999;stroke-opacity:1"
             d="m 77.0211,77.910129 c -0.442727,0.610627 -0.498568,1.491814 0.101357,2.060165 1.39414,1.320763 3.61991,-0.772205 2.804197,-1.587918 -0.451348,-0.451347 -2.796376,3.478906 -1.993345,4.763757"
             id="path25" />
          <path
             style="fill:none;stroke:#b20097;stroke-width:0.264999;stroke-opacity:1"
             d="m 80.771294,82.098782 c -1.223595,1.550967 -1.096592,1.212827 -1.520349,2.229843"
             id="path26" />
          <path
             style="fill:none;stroke:#b20097;stroke-width:0.264999;stroke-opacity:1"
             d="m 79.588799,82.016714 c 0.337725,0.904383 0.996482,2.146133 1.286518,2.751122"
             id="path27" />
          <path
             style="fill:none;stroke:#b20097;stroke-width:0.268909;stroke-dasharray:1.07563, 0.537817, 0.268909, 0.537817;stroke-dashoffset:0;stroke-opacity:1"
             d="M 78.640354,72.463679 V 50.118057"
             id="path29" />
          <path
             style="fill:none;stroke:#b20097;stroke-width:0.264999;stroke-dasharray:1.05999, 0.529997, 0.264999, 0.529997;stroke-dashoffset:0;stroke-opacity:1"
             d="M 78.640354,50.118057 53.605249,50.543118"
             id="path33" />
          <circle
             style="fill:#b20097;fill-opacity:1;stroke:#b20097;stroke-width:0.264999;stroke-dasharray:none;stroke-opacity:1"
             id="path50"
             cx="78.507858"
             cy="50.329494"
             r="0.7298196" />
          <circle
             style="fill:#b20097;fill-opacity:1;stroke:#b20097;stroke-width:0.264999;stroke-dasharray:none;stroke-opacity:1"
             id="circle47"
             cx="78.507858"
             cy="74.053513"
             r="0.7298196" />
          <g
             id="g53"
             transform="matrix(0.89291869,0,0,0.89291869,11.803652,3.0712191)">
            <path
               style="fill:none;stroke:#1a1a1a;stroke-width:0.264999;stroke-dasharray:none;stroke-dashoffset:0;stroke-opacity:1"
               d="m 107.48093,46.465974 c -0.12443,-1.900225 -1.69628,-0.693722 -1.55284,0.64503 0.0817,0.762479 0.34403,1.311711 0.7167,1.958975 0.036,0.0626 0.44221,0.556173 0.16723,0.57336 -0.49363,0.03085 -1.14134,-0.04286 -1.57674,-0.286679 -0.18849,-0.105553 -0.86151,-0.928507 -0.38224,-0.860038"
               id="path49" />
            <path
               style="fill:none;stroke:#1a1a1a;stroke-width:0.264999;stroke-dasharray:none;stroke-dashoffset:0;stroke-opacity:1"
               d="m 108.97711,45.30781 c -0.0884,1.401063 -0.0494,2.729702 -0.004,4.101499"
               id="path51" />
            <path
               style="fill:none;stroke:#1a1a1a;stroke-width:0.264999;stroke-dasharray:none;stroke-dashoffset:0;stroke-opacity:1"
               d="m 110.68441,45.751979 c -0.68151,8.139969 -0.35439,1.617123 1.16892,0.314474 0.0473,-0.04042 0.10269,-0.138844 0.15456,-0.10452 0.84647,0.560186 1.04318,3.216049 1.16621,4.164732"
               id="path52" />
            <path
               style="fill:#000000;fill-opacity:1;stroke:none;stroke-width:0.431047;stroke-dasharray:none;stroke-dashoffset:0;stroke-opacity:1"
               d="m 109.23599,43.849714 c -0.45078,-0.165485 -0.76311,0.585714 -0.28624,0.479449 0.13078,-0.02916 0.0816,-0.112164 0.24991,-0.117824"
               id="path53" />
          </g>
        </g>
        <g
           id="g56"
           transform="translate(-5.5536146,-9.9910911)">
          <path
             style="fill:none;stroke:#000000;stroke-width:0.265;stroke-dasharray:none;stroke-opacity:1"
             d="m 14.769292,74.278032 c 10.361704,-0.13169 20.71031,-0.441649 31.065499,-0.441649"
             id="path5" />
          <path
             style="fill:none;stroke:#000000;stroke-width:0.264583;stroke-opacity:1"
             d="m 33.86908,75.531737 c -0.142322,-0.573572 -0.777565,-0.558098 -1.146717,-0.16723 -0.799801,0.846847 -0.888379,3.070972 0.788368,2.651786 0.583578,-0.145895 0.914188,-1.636938 0.812258,-2.126207 -0.03732,-0.17914 -0.236546,-0.332107 -0.35835,-0.453909"
             id="path9" />
          <path
             style="fill:none;stroke:#000000;stroke-width:0.264999;stroke-opacity:1"
             d="M 30.301199,29.460962 V 90.139731"
             id="path18" />
          <path
             style="fill:none;stroke:#000000;stroke-width:0.264999;stroke-opacity:1"
             d="m 27.032382,32.062446 c 0.40612,-2.052251 2.281613,-6.71501 4.763757,-3.648834 0.889291,1.098537 0.881332,2.945156 1.520346,4.223186"
             id="path19" />
          <path
             style="fill:none;stroke:#000000;stroke-width:0.264999;stroke-opacity:1"
             d="m 26.902402,41.520752 c 2.50063,-0.01077 4.998405,0.09556 7.499141,0.09556"
             id="path22" />
          <path
             style="fill:none;stroke:#000000;stroke-width:0.264999;stroke-opacity:1"
             d="m 22.03014,42.103866 c 0.608421,-0.922182 1.390438,-1.715604 2.02713,-2.635271 1.003676,-1.449753 0.413387,3.141969 0.955475,4.189404"
             id="path24" />
          <path
             style="fill:none;stroke:#b20097;stroke-width:0.264999;stroke-dasharray:1.05999, 0.529997, 0.264999, 0.529997;stroke-dashoffset:0;stroke-opacity:1"
             d="M 45.834792,50.673409 H 30.301199"
             id="path34" />
          <path
             style="fill:none;stroke:#b20097;stroke-width:0.264999;stroke-dasharray:none;stroke-dashoffset:0;stroke-opacity:1"
             d="m 26.521624,48.7187 c -0.411946,1.421571 -1.858204,2.70661 -1.858204,4.256973"
             id="path45" />
          <path
             style="fill:none;stroke:#b20097;stroke-width:0.264999;stroke-dasharray:none;stroke-dashoffset:0;stroke-opacity:1"
             d="m 24.53092,48.9552 c -0.881972,1.625637 1.994964,2.778932 2.767769,4.324543"
             id="path46" />
          <circle
             style="fill:#b20097;fill-opacity:1;stroke:#b20097;stroke-width:0.264999;stroke-dasharray:none;stroke-opacity:1"
             id="circle46"
             cx="30.168699"
             cy="50.540909"
             r="0.7298196" />
          <path
             style="fill:none;fill-opacity:1;stroke:none;stroke-width:0.264999;stroke-dasharray:none;stroke-dashoffset:0;stroke-opacity:1"
             d="m 20.67673,87.301749 c 3.882593,-5.096732 7.771587,-10.303042 11.960068,-15.135908 1.031603,-1.19031 1.990199,-2.749975 2.837985,-4.05426 1.806027,-2.778504 5.045966,-4.597702 7.838236,-6.148962 0.836279,-0.464598 1.60733,-1.274307 2.521773,-1.418992"
             id="path54" />
          <path
             style="fill:none;stroke:#000000;stroke-width:0.264999;stroke-opacity:1"
             d="M 24.406157,88.308901 C 29.426276,74.915832 32.786423,66.505637 42.413248,53.385476"
             id="path55"
             sodipodi:nodetypes="cc" />
        </g>
        <g
           id="g67"
           transform="translate(-5.5536147,-9.9910911)">
          <g
             id="g59">
            <g
               id="g34">
              <circle
                 style="fill:#000000;fill-opacity:1;stroke:#000000;stroke-width:0.405;stroke-dasharray:none"
                 id="circle74"
                 cx="49.72002"
                 cy="73.70388"
                 r="0.10940745" />
            </g>
            <g
               id="g58"
               transform="translate(5.9462492)">
              <circle
                 style="fill:#000000;fill-opacity:1;stroke:#000000;stroke-width:0.404534;stroke-dasharray:none"
                 id="circle56"
                 cx="47.713264"
                 cy="73.70388"
                 r="0.10940745" />
              <circle
                 style="fill:#000000;fill-opacity:1;stroke:#000000;stroke-width:0.404534;stroke-dasharray:none"
                 id="circle58"
                 cx="51.726776"
                 cy="73.70388"
                 r="0.10940745" />
            </g>
          </g>
          <g
             id="g66"
             transform="translate(-0.32729104,-23.162971)">
            <g
               id="g61">
              <circle
                 style="fill:#000000;fill-opacity:1;stroke:#000000;stroke-width:0.404534;stroke-dasharray:none"
                 id="circle60"
                 cx="49.72002"
                 cy="73.70388"
                 r="0.10940745" />
            </g>
            <g
               id="g65"
               transform="translate(5.9462492)">
              <circle
                 style="fill:#000000;fill-opacity:1;stroke:#000000;stroke-width:0.404534;stroke-dasharray:none"
                 id="circle62"
                 cx="47.713264"
                 cy="73.70388"
                 r="0.10940745" />
              <circle
                 style="fill:#000000;fill-opacity:1;stroke:#000000;stroke-width:0.404534;stroke-dasharray:none"
                 id="circle64"
                 cx="51.726776"
                 cy="73.70388"
                 r="0.10940745" />
            </g>
          </g>
        </g>
      </g>
      <circle
         style="fill:#000000;fill-opacity:1;stroke:#000000;stroke-width:0.405;stroke-linecap:butt;stroke-linejoin:miter;stroke-dasharray:none;stroke-dashoffset:0;stroke-opacity:1"
         id="path70"
         cx="40.142063"
         cy="53.658386"
         r="0.38223937" />
      <circle
         style="fill:#000000;fill-opacity:1;stroke:#000000;stroke-width:0.405;stroke-linecap:butt;stroke-linejoin:miter;stroke-dasharray:none;stroke-dashoffset:0;stroke-opacity:1"
         id="circle70"
         cx="44.092388"
         cy="53.658386"
         r="0.38223937" />
      <circle
         style="fill:#000000;fill-opacity:1;stroke:#000000;stroke-width:0.405;stroke-linecap:butt;stroke-linejoin:miter;stroke-dasharray:none;stroke-dashoffset:0;stroke-opacity:1"
         id="circle71"
         cx="48.1059"
         cy="53.658386"
         r="0.38223937" />
      <circle
         style="fill:#000000;fill-opacity:1;stroke:#000000;stroke-width:0.405;stroke-linecap:butt;stroke-linejoin:miter;stroke-dasharray:none;stroke-dashoffset:0;stroke-opacity:1"
         id="circle72"
         cx="47.778606"
         cy="30.627922"
         r="0.38223937" />
      <circle
         style="fill:#000000;fill-opacity:1;stroke:#000000;stroke-width:0.405;stroke-linecap:butt;stroke-linejoin:miter;stroke-dasharray:none;stroke-dashoffset:0;stroke-opacity:1"
         id="circle73"
         cx="43.765095"
         cy="30.495422"
         r="0.38223937" />
      <circle
         style="fill:#000000;fill-opacity:1;stroke:#000000;stroke-width:0.405;stroke-linecap:butt;stroke-linejoin:miter;stroke-dasharray:none;stroke-dashoffset:0;stroke-opacity:1"
         id="circle75"
         cx="39.825603"
         cy="30.495422"
         r="0.38223937" />
      <g
         id="g78"
         transform="translate(37.281335,-23.335087)"
         style="fill:none;stroke:#b20097;stroke-width:0.265;stroke-dasharray:none;stroke-opacity:1">
        <g
           id="g5"
           transform="translate(1.5289575)">
          <path
             style="fill:none;fill-opacity:1;stroke:#b20097;stroke-width:0.265;stroke-linecap:butt;stroke-linejoin:miter;stroke-dasharray:none;stroke-dashoffset:0;stroke-opacity:1"
             d="m 67.656368,85.00048 c -0.287451,-0.244893 -0.356965,-0.732888 -0.573358,-1.003377 -0.902443,-1.128054 -0.956214,0.714232 -0.81226,1.290058 0.171577,0.686298 1.245706,2.191023 0.90782,2.866795 -0.328591,0.65718 -2.0589,-0.87313 -2.197878,-1.290058"
             id="path75" />
          <path
             style="fill:none;fill-opacity:1;stroke:#b20097;stroke-width:0.265;stroke-linecap:butt;stroke-linejoin:miter;stroke-dasharray:none;stroke-dashoffset:0;stroke-opacity:1"
             d="m 68.449435,87.538247 c -0.04066,0.731829 -0.03378,0.405114 -0.03378,0.979781 0,2.267355 0.278209,-1.041691 0.74328,-0.709496 0.378651,0.270462 0.522441,1.28138 0.709496,1.65549"
             id="path76" />
        </g>
      </g>
      <g
         id="g4"
         style="stroke-width:0.265;stroke-dasharray:none"
         transform="translate(-3.4401544,4.3479729)">
        <g
           id="g2"
           transform="matrix(-0.88250905,0.6924975,0.6924975,0.88250905,155.62916,-63.212918)"
           style="stroke-width:0.236233;stroke-dasharray:none">
          <g
             id="g3"
             transform="rotate(5.3381158,102.45301,30.150807)"
             style="stroke-width:0.236233;stroke-dasharray:none">
            <path
               style="fill:none;fill-opacity:1;stroke:#b20097;stroke-width:0.236233;stroke-linecap:butt;stroke-linejoin:miter;stroke-dasharray:none;stroke-dashoffset:0;stroke-opacity:1"
               d="m 106.2892,58.032284 c 4.36235,-2.34407 9.73704,-5.963819 11.01408,-11.071979"
               id="path78" />
            <path
               style="fill:none;fill-opacity:1;stroke:#b20097;stroke-width:0.236233;stroke-linecap:butt;stroke-linejoin:miter;stroke-dasharray:none;stroke-dashoffset:0;stroke-opacity:1"
               d="m 114.9383,48.311726 c 2.81607,-1.963963 3.43968,-1.740766 3.78397,1.013565"
               id="path79" />
          </g>
        </g>
        <g
           id="g1"
           transform="matrix(0.83767555,0,0,0.83767555,-5.9981157,17.58893)"
           style="stroke-width:0.316352;stroke-dasharray:none">
          <path
             style="fill:none;fill-opacity:1;stroke:#b20097;stroke-width:0.316352;stroke-linecap:butt;stroke-linejoin:miter;stroke-dasharray:none;stroke-dashoffset:0;stroke-opacity:1"
             d="m 114.02608,55.102614 c -0.045,0.202713 -0.11087,0.401902 -0.13514,0.608139 -0.0766,0.650987 0.0904,1.427888 0.2365,2.060914 0.0537,0.232524 0.0933,0.866619 0.2365,0.675712 0.49823,-0.664303 0.43895,-1.857947 1.01357,-2.432558 0.4408,-0.440804 1.48252,2.315069 1.52034,2.466342"
             id="path86" />
          <path
             style="fill:none;fill-opacity:1;stroke:#b20097;stroke-width:0.316352;stroke-linecap:butt;stroke-linejoin:miter;stroke-dasharray:none;stroke-dashoffset:0;stroke-opacity:1"
             d="m 118.35063,57.16353 c 1.31183,0.34262 2.704,-0.123624 4.02047,0.168926"
             id="path87" />
          <path
             style="fill:none;fill-opacity:1;stroke:#b20097;stroke-width:0.316352;stroke-linecap:butt;stroke-linejoin:miter;stroke-dasharray:none;stroke-dashoffset:0;stroke-opacity:1"
             d="m 121.4589,56.217534 c 2.37403,0.817136 2.5648,0.862224 1.21627,2.060916"
             id="path88" />
          <path
             style="fill:none;fill-opacity:1;stroke:#b20097;stroke-width:0.316352;stroke-linecap:butt;stroke-linejoin:miter;stroke-dasharray:none;stroke-dashoffset:0;stroke-opacity:1"
             d="m 132.37162,56.014821 c -1.53717,-0.08446 -2.4876,1.59345 -3.61505,2.398773 -0.64179,0.458417 -3.84629,0.463796 -3.0407,-0.945997 0.23515,-0.411511 0.62389,-0.602128 1.04735,-0.74328 2.61748,-0.872493 2.37056,1.090348 4.6624,1.790633 0.97064,0.296583 1.56864,-1.272243 0.87842,-1.824418"
             id="path89" />
        </g>
      </g>
    </g>
  </g>
</svg>
