<?xml version="1.0" encoding="UTF-8"?>
<!-- Created with Inkscape (http://www.inkscape.org/) -->
<svg width="640" height="640" version="1.1" viewBox="0 0 169.33 169.33" xml:space="preserve"
     xmlns="http://www.w3.org/2000/svg"><g transform="matrix(1.0628 0 0 .95875 -5.3158 2.3999)"><g transform="matrix(.96633 0 0 .66358 3.1285 56.91)"><rect x="11.658" y="140.09" width="145.44" height="16.054" ry="8.027" stroke-width=".28843"/><rect
        x="11.658" y="148.12" width="145.44" height="8.027" ry="0" stroke-width=".20395"/><rect x="11.658" y="148.12"
                                                                                                width="145.44"
                                                                                                height="8.027" ry="0"
                                                                                                stroke-width=".20395"/></g><g
        transform="matrix(.87363 0 0 .49476 10.95 67.884)"><rect x="11.658" y="140.09" width="145.44" height="16.054" ry="8.027" stroke-width=".28843"/>
    <rect x="11.658" y="148.12" width="145.44" height="8.027" ry="0" stroke-width=".20395"/>
    <rect x="11.658" y="148.12" width="145.44" height="8.027" ry="0" stroke-width=".20395"/></g><g
        transform="translate(-3.9253e-6 1.3229)"><g stroke-width=".25004"><rect x="31.286" y="73.607" width="13.408" height="54.597"/><rect
        x="61.531" y="73.607" width="13.408" height="54.597"/><rect x="91.777" y="73.607" width="13.408"
                                                                    height="54.597"/><rect x="122.02" y="73.607"
                                                                                           width="13.408"
                                                                                           height="54.597"/></g>
    <g transform="matrix(-.87363 0 0 -.71363 158.38 174.11)"><rect x="11.658" y="140.09" width="145.44" height="16.054" ry="8.027" stroke-width=".28843"/>
        <rect x="11.658" y="148.12" width="145.44" height="8.027" ry="0" stroke-width=".20395"/>
        <rect x="11.658" y="148.12" width="145.44" height="8.027" ry="0" stroke-width=".20395"/></g></g><g
        transform="matrix(1 0 0 .88206 -7.17 -1.3084)"><g transform="matrix(1.0125 0 0 .49476 6.3989 -13.704)"><rect x="11.658" y="140.09" width="145.44" height="16.054" ry="8.027" stroke-width=".28843"/><rect
        x="11.658" y="148.12" width="145.44" height="8.027" ry="0" stroke-width=".20395"/><rect x="11.658" y="148.12"
                                                                                                width="145.44"
                                                                                                height="8.027" ry="0"
                                                                                                stroke-width=".20395"/></g>
    <path transform="matrix(2.1093 0 0 .72962 -14.989 30.81)"
          d="m84.667 35.948-67.867-0.27831 34.175-58.636 16.846 29.457z" stroke-width=".26458"/></g></g></svg>
